<?xml version="1.0" standalone="no"?><!-- Generator: Adobe Fireworks CS5, Export SVG Extension by Aaron Beall (http://fireworks.abeall.com) . Version: 0.6.0  --><!DOCTYPE svg PUBLIC "-//W3C//DTD SVG 1.1//EN" "http://www.w3.org/Graphics/SVG/1.1/DTD/svg11.dtd"><svg id="" viewBox="0 0 20 20" style="background-color:#ffffff00" version="1.1"	xmlns="http://www.w3.org/2000/svg" xmlns:xlink="http://www.w3.org/1999/xlink" xml:space="preserve"	x="0px" y="0px" width="20px" height="20px">	<path id="User" d="M 18.7499 20 L 1.25 20 C 0.5596 20 0 19.4402 0 18.75 L 0 17.5 L 0.1261 17.5 C 0.6297 14.514 2.8919 12.1442 5.8104 11.4653 C 5.302 10.6825 5 9.7529 5 8.75 L 5 5 C 5 2.2386 7.2386 0 10 0 C 12.7615 0 15 2.2386 15 5 L 15 8.75 C 15 9.7529 14.698 10.6825 14.1897 11.4653 C 17.1082 12.1442 19.3702 14.514 19.874 17.5 L 20 17.5 L 20 18.75 C 20 19.4402 19.4405 20 18.7499 20 ZM 12.5 5 C 12.5 3.6194 11.3807 2.5 10 2.5 C 8.6193 2.5 7.5 3.6194 7.5 5 L 7.5 8.75 C 7.5 10.1308 8.6193 11.25 10 11.25 C 11.3807 11.25 12.5 10.1308 12.5 8.75 L 12.5 5 ZM 12.5 13.75 L 7.5 13.75 C 5.1729 13.75 3.2345 15.3473 2.6768 17.5 L 17.3233 17.5 C 16.7656 15.3473 14.8271 13.75 12.5 13.75 Z" fill="#ced4d7"/></svg>