<?xml version="1.0" encoding="UTF-8" standalone="no"?>
<svg width="106px" height="21px" viewBox="0 0 106 21" version="1.1" xmlns="http://www.w3.org/2000/svg" xmlns:xlink="http://www.w3.org/1999/xlink" xmlns:sketch="http://www.bohemiancoding.com/sketch/ns">
    <!-- Generator: Sketch 3.2.2 (9983) - http://www.bohemiancoding.com/sketch -->
    <title>webtalk-logo</title>
    <desc>Created with Sketch.</desc>
    <defs></defs>
    <g id="Page-1" stroke="none" stroke-width="1" fill="none" fill-rule="evenodd" sketch:type="MSPage">
        <g id="Artboard-1" sketch:type="MSArtboardGroup" transform="translate(-213.000000, -174.000000)" fill="#FFFFFF">
            <g id="webtalk-logo" sketch:type="MSLayerGroup" transform="translate(212.000000, 174.000000)">
                <path d="M84,21 C82.6426,19.9434 81.499,18.0413 80.7842,16.6586 C82.1496,15.3132 83,13.5036 83,11.5 C83,7.3579 79.4183,4 75,4 C70.5818,4 67,7.3579 67,11.5 C67,15.6421 70.5818,18.9999 75,18.9999 C76.0163,18.9999 76.9795,18.8043 77.8738,18.4804 C80.3168,20.413 84,21 84,21 L84,21 Z M102.2919,12.3281 L106.37,8.2188 C106.7763,7.8125 106.995,7.3125 106.995,6.75 C106.995,6.1875 106.7763,5.6875 106.37,5.2813 C105.9325,4.8906 105.4481,4.6875 104.8856,4.6719 C104.3231,4.6719 104.0938,4.875 103.6875,5.2813 L99,9.9531 L99,2.0937 C99,1.5157 98.7969,1.0157 98.4218,0.6093 C98.0313,0.2031 97.3075,0 96.7606,0 C96.1981,0 95.9844,0.2188 95.5937,0.6406 C95.1875,1.0781 95,1.5625 95,2.0937 L95,17.9063 C95,18.5 95.2031,18.9844 95.625,19.3906 C96.0312,19.7968 96.245,20 96.7606,20 C97.2919,20 98,19.7968 98.4062,19.3594 C98.7969,18.9375 99,18.4532 99,17.9063 L99,14.7032 L103.6875,19.3437 C104.125,19.7812 104.3544,19.9844 104.9168,19.9532 C105.4794,19.9219 105.9637,19.7188 106.37,19.3437 C106.7763,18.9375 106.995,18.4532 106.995,17.8906 C106.995,17.3281 106.7763,16.8281 106.37,16.4063 L102.2919,12.3281 L102.2919,12.3281 Z M86.6406,0.5937 C86.2656,0.9688 86.0625,1.4219 86,1.9531 L86,14.4688 C86,15.2188 86.1406,15.9219 86.4375,16.5781 C86.7344,17.25 86.8856,17.8437 87.4012,18.3437 C87.9013,18.8437 88.495,19.25 89.1825,19.5468 C89.8544,19.8594 90.5731,20 91.3543,20 L91.8075,20 C92.37,19.9219 92.8387,19.6875 93.1981,19.2968 C93.5575,18.9219 93.745,18.4688 93.745,17.9688 C93.7137,17.4063 93.4794,16.9375 93.0106,16.5625 C92.5418,16.1875 92.0106,16 91.3856,16 C90.9012,16 90.7656,15.8594 90.4531,15.5625 C90.1406,15.2812 90,14.9219 90,14.4844 L90,2.0781 C89.9531,1.4844 89.75,1 89.375,0.5937 C89,0.2031 88.2762,0 87.745,0 C87.1981,0.0313 87,0.2188 86.6406,0.5937 L86.6406,0.5937 Z M53.5937,0.5625 C53.1875,0.9375 53,1.4062 53,1.9688 L53,12.2656 C53.0156,13.4375 53.2188,14.5 53.625,15.4532 C54.0312,16.4063 54.5781,17.2188 55.2656,17.8906 C55.9531,18.5781 56.7657,19.0937 57.7031,19.4532 C58.6406,19.8281 59.6406,20 60.7187,20 C61.7187,20 62.6406,19.8281 63.5156,19.4688 C64.375,19.1094 65.1719,18.5781 65.9063,17.8906 C66.0938,17.7188 66.2188,17.5156 66.3125,17.2656 C66.3906,17.0312 66.4219,16.7812 66.4219,16.5312 C66.4062,16.2812 66.3438,16.0468 66.25,15.7968 C66.1406,15.5625 65.9844,15.3594 65.7813,15.1719 C65.3125,14.7656 64.8281,14.5625 64.2969,14.5625 C63.7656,14.5781 63.2969,14.7656 62.8594,15.1406 C62.5781,15.4219 62.2344,15.6406 61.8594,15.7812 C61.4688,15.9375 61.0156,16 60.4844,16 C59.9844,16 59.5156,15.9219 59.0937,15.7344 C58.6719,15.5468 58.3125,15.2968 58,14.9688 C57.6875,14.6406 57.4375,14.2656 57.2656,13.8437 C57.0781,13.4219 57,12.9688 57,12.5 L57,9 L62.9531,9 C63.4687,9 63.9375,8.7969 64.3437,8.3906 C64.75,7.9844 64.9687,7.5313 64.9687,7 C64.9687,6.4688 64.7812,6 64.4063,5.5937 C64.0313,5.2031 63.5469,5 62.9531,5 L57,5 L57,2.3593 C56.9531,1.7031 56.75,1.1406 56.375,0.6875 C56,0.2344 55.5469,0 55,0 C54.4687,0 54,0.1875 53.5937,0.5625 L53.5937,0.5625 Z M38.2656,0.3437 C38.0313,0.4531 37.8281,0.5937 37.6406,0.7657 C37.4532,0.9531 37.2969,1.1562 37.1719,1.3906 C37.0469,1.625 37,1.8593 37,2.1093 L37,12.5 C37,13.5156 37.2031,14.4844 37.6094,15.3906 C38.0156,16.2968 38.5781,17.0937 39.2656,17.7812 C39.9531,18.4688 40.7656,19 41.6718,19.4063 C42.5781,19.8125 43.5156,20 44.5156,20 C45.5156,20 46.4844,19.8125 47.3906,19.4219 C48.2969,19.0312 49.0781,18.5 49.7656,17.8125 C50.4531,17.125 50.9844,16.3281 51.3906,15.4219 C51.7969,14.5156 52,13.5312 52,12.5 C52,11.4063 51.8125,10.4375 51.4531,9.5781 C51.0937,8.7188 50.5469,7.9219 49.8281,7.1719 C49.2031,6.5937 48.5313,6.1406 47.8125,5.7969 C47.0937,5.4531 46.3438,5.2344 45.5938,5.1094 C44.8282,5 44.0156,5 43.2344,5.1094 C42.4531,5.2344 41.7188,5.4688 41,5.8281 L41,2.2657 C41,2 40.9375,1.7344 40.8438,1.4844 C40.7344,1.2344 40.5781,1 40.3906,0.8125 C40.2031,0.625 39.9844,0.4844 39.7344,0.3593 C39.4844,0.25 39.2344,0.2031 38.9844,0.2188 C38.7344,0.2031 38.5,0.25 38.2656,0.3437 L38.2656,0.3437 Z M41.2813,11.2031 C41.4688,10.7812 41.7188,10.4063 42.0469,10.0781 C42.3594,9.7656 42.7344,9.5 43.1562,9.2969 C43.5625,9.1094 44.0156,9 44.5,9 C44.9531,9 45.3906,9.0937 45.8281,9.2813 C46.25,9.4688 46.625,9.7188 46.9531,10.0312 C47.2656,10.3437 47.5312,10.7188 47.7187,11.1406 C47.9063,11.5781 48,12.0312 48,12.5 C48,12.9844 47.9063,13.4375 47.7187,13.8594 C47.5312,14.2968 47.2656,14.6563 46.9531,14.9688 C46.625,15.2812 46.25,15.5312 45.8281,15.7188 C45.3906,15.9063 44.9531,16 44.5,16 C44.0156,16 43.5625,15.9063 43.1562,15.7188 C42.7344,15.5312 42.3594,15.2812 42.0469,14.9688 C41.7188,14.6563 41.4688,14.2968 41.2813,13.8594 C41.0937,13.4375 41,12.9844 41,12.5 C41,12.0625 41.0937,11.6406 41.2813,11.2031 L41.2813,11.2031 Z M25.3281,10 C25.6719,9.7031 26.0781,9.4688 26.5469,9.2813 C27.0156,9.0937 27.5469,9 28.1563,9 C28.7187,9 29.25,9.0937 29.7343,9.2813 C30.2031,9.4688 30.625,9.7031 30.9688,10 L25.3281,10 L25.3281,10 Z M28.975,16 C28.8831,16.0294 28.7754,16.0347 28.66,16.03 C28.5048,16.0237 28.3325,16 28.1563,16 C26.9531,16 26.0156,15.3437 25.3281,14 L33.5781,14 C34.1719,14.0312 34.6719,13.8437 35.0781,13.4532 C35.4844,13.0625 35.6875,12.6094 35.6875,12.0937 C35.6875,11.1563 35.4687,10.2656 35.0625,9.4219 C34.6563,8.5781 34.0938,7.8125 33.4062,7.1562 C32.7188,6.5 31.9062,5.9844 31,5.5937 C30.0938,5.2031 29.1406,5 28.1563,5 C27.1407,5 26.1719,5.2188 25.2656,5.625 C24.3594,6.0313 23.5625,6.5937 22.875,7.2813 C22.1875,7.9688 21.6563,8.7813 21.25,9.6875 C20.8438,10.5937 20.6563,11.5312 20.6563,12.5 C20.6563,13.5 20.8438,14.4532 21.25,15.3906 C21.6563,16.3281 22.2031,17.1406 22.8906,17.8281 C23.5781,18.5156 24.3906,19.0625 25.2969,19.4688 C26.2031,19.875 27.1563,20.0312 28.1563,20 L28.66,20 C28.7704,20.0188 28.8843,20 29,20 L33.9844,20 C35.0889,20 35.9844,19.1046 35.9844,17.9961 C35.9844,16.8916 35.0889,16 33.9844,16 L29.17,16 L29,16 L28.975,16 L28.975,16 Z M28.975,16 C28.8683,16.0016 28.7621,16.0124 28.66,16.03 C28.7754,16.0347 28.8831,16.0294 28.975,16 L28.975,16 Z M29.0156,15.9844 L28.975,16 L29,16 L29.17,16 C29.1118,15.9746 29.0598,15.9655 29.0156,15.9844 L29.0156,15.9844 Z M8.3437,19.7032 C8.9375,19.5156 9.4844,19.2032 9.9843,18.7968 C10.9844,19.6094 12.1406,20 13.4688,20 C14.1875,20 14.875,19.8594 15.5625,19.5781 C16.2344,19.2968 16.8282,18.9219 17.3281,18.4532 C17.8281,17.9844 18.2343,17.4063 18.5469,16.75 C18.8437,16.0937 19,15.3906 19,14.6406 L19,6.8594 C19,6.3594 18.7969,5.9375 18.3906,5.5625 C17.9844,5.1875 17.5156,5 16.9844,5 C16.4531,5 15.9844,5.2031 15.5937,5.6094 C15.1875,6.0156 15,6.5 15,7.0313 L15,14.5937 C15,15 14.8437,15.3281 14.5625,15.5937 C14.2656,15.875 13.9063,16 13.4844,16 C13.1094,16 12.7812,15.8906 12.4687,15.6406 C12.1562,15.4063 12,15.0625 12,14.5937 L12,7.0313 C12,6.4688 11.7969,6 11.4063,5.5937 C11,5.2031 10.5312,5 9.9843,5 C9.4688,5 9.0157,5.1875 8.6094,5.5469 C8.2031,5.9219 8,6.3594 8,6.875 L8,14.5937 C7.9688,15.0156 7.8125,15.3594 7.5156,15.6094 C7.2031,15.875 6.875,16 6.5156,16 C6.1094,16 5.75,15.875 5.4688,15.5937 C5.1719,15.3281 5.0156,14.9844 5,14.5625 L5,6.8437 C4.9531,6.3437 4.75,5.9219 4.375,5.5469 C4,5.1875 3.5469,5 3.0156,5 C2.7344,5 2.4687,5.0625 2.2188,5.1562 C1.9688,5.2656 1.7656,5.4062 1.5781,5.5937 C1.3906,5.7813 1.25,6 1.1406,6.25 C1.0156,6.5 0.9687,6.75 1,7.0156 L1,14.6406 C1,15.3594 1.1406,16.0468 1.4375,16.7032 C1.7187,17.3594 2.1094,17.9219 2.6093,18.4063 C3.1094,18.8906 3.6875,19.2812 4.375,19.5625 C5.0469,19.8594 5.7656,20 6.5313,20 C7.1562,20 7.75,19.9063 8.3437,19.7032 L8.3437,19.7032 Z" id="Composite%20Path" sketch:type="MSShapeGroup"></path>
            </g>
        </g>
    </g>
</svg>