<?xml version="1.0" standalone="no"?>
<!DOCTYPE svg PUBLIC "-//W3C//DTD SVG 1.1//EN" "http://www.w3.org/Graphics/SVG/1.1/DTD/svg11.dtd" >
<svg xmlns="http://www.w3.org/2000/svg">
<metadata>
<json>
<![CDATA[
{
	"fontFamily": "webtalk",
	"majorVersion": 1,
	"minorVersion": 0,
	"version": "Version 1.0",
	"fontId": "webtalk",
	"psName": "webtalk",
	"subFamily": "Regular",
	"fullName": "webtalk",
	"description": "Font generated by IcoMoon."
}
]]>
</json>
</metadata>
<defs>
<font id="webtalk" horiz-adv-x="1024">
<font-face units-per-em="1024" ascent="960" descent="-64" />
<missing-glyph horiz-adv-x="1024" />
<glyph unicode="&#x20;" horiz-adv-x="512" d="" />
<glyph unicode="&#xe600;" glyph-name="shopping-cart" data-tags="shopping-cart" horiz-adv-x="951" d="M365.714 82.286q0-30.286-21.429-51.714t-51.714-21.429-51.714 21.429-21.429 51.714 21.429 51.714 51.714 21.429 51.714-21.429 21.429-51.714zM877.714 82.286q0-30.286-21.429-51.714t-51.714-21.429-51.714 21.429-21.429 51.714 21.429 51.714 51.714 21.429 51.714-21.429 21.429-51.714zM950.857 704v-292.571q0-13.714-9.143-24.286t-23.429-12.286l-596.571-69.714q0.571-4 2.571-12.286t3.429-15.143 1.429-12.571q0-9.143-13.714-36.571h525.714q14.857 0 25.714-10.857t10.857-25.714-10.857-25.714-25.714-10.857h-585.143q-14.857 0-25.714 10.857t-10.857 25.714q0 8 6.286 22.571t16.857 34 11.714 21.714l-101.143 470.286h-116.571q-14.857 0-25.714 10.857t-10.857 25.714 10.857 25.714 25.714 10.857h146.286q9.143 0 16.286-3.714t11.429-8.857 7.429-14 4.286-15.143 3.143-16.857 2.571-14.571h686.286q14.857 0 25.714-10.857t10.857-25.714z" />
<glyph unicode="&#xe601;" glyph-name="mobile" data-tags="mobile, cell-phone, handheld" d="M736 960h-448c-52.8 0-96-43.2-96-96v-832c0-52.8 43.2-96 96-96h448c52.8 0 96 43.2 96 96v832c0 52.8-43.2 96-96 96zM384 912h256v-32h-256v32zM512 0c-35.346 0-64 28.654-64 64s28.654 64 64 64 64-28.654 64-64-28.654-64-64-64zM768 192h-512v640h512v-640z" />
<glyph unicode="&#xe602;" glyph-name="cloud" data-tags="cloud, weather" d="M1024 302.458c0 82.090-56.678 150.9-132.996 169.48-3.242 128.7-108.458 232.062-237.862 232.062-75.792 0-143.266-35.494-186.854-90.732-24.442 31.598-62.69 51.96-105.708 51.96-73.81 0-133.642-59.874-133.642-133.722 0-6.436 0.48-12.76 1.364-18.954-11.222 2.024-22.766 3.138-34.57 3.138-106.998 0.002-193.732-86.786-193.732-193.842 0-107.062 86.734-193.848 193.73-193.848l656.262 0.012c96.138 0.184 174.008 78.212 174.008 174.446z" />
<glyph unicode="&#xe603;" glyph-name="bubble" data-tags="bubble, comment, chat, talk" d="M512 896c282.77 0 512-186.25 512-416 0-229.752-229.23-416-512-416-27.156 0-53.81 1.734-79.824 5.044-109.978-109.978-241.25-129.7-368.176-132.596v26.916c68.536 33.578 128 94.74 128 164.636 0 9.754-0.758 19.33-2.164 28.696-115.796 76.264-189.836 192.754-189.836 323.304 0 229.75 229.23 416 512 416z" />
<glyph unicode="&#xe604;" glyph-name="comment" data-tags="comment" horiz-adv-x="1081" d="M1080.889 538.351c0 232.886-241.897 421.649-540.444 421.649-298.485 0-540.444-188.763-540.444-421.649 0-232.852 241.96-421.643 540.444-421.643 23.632 0 46.683 1.559 69.49 3.851 43.924-130.998 230.758-184.559 230.758-184.559-39.76 83.911-53.777 167.765-58.465 225.65 176.981 69.262 298.661 211.735 298.661 376.701v0 0z" />
<glyph unicode="&#xe605;" glyph-name="file" data-tags="file, paper, document" d="M298.667 661.333h256v-85.333h-256zM298.667 533.333h384v-42.667h-384zM298.667 448h384v-42.667h-384zM298.667 362.667h384v-42.667h-384zM298.667 277.333h128v-42.667h-128zM701.013 874.667h-573.013v-896h725.333v745.173l-152.32 150.827zM768 688.512v-27.179h-128v128h25.685l102.315-100.821zM213.333 64v725.333h384v-170.667h170.667v-554.667h-554.667z" />
<glyph unicode="&#xe606;" glyph-name="plus" data-tags="plus" d="M455.111 950.857c-62.839 0-113.778-50.938-113.778-113.778v-227.556h-227.556c-62.839 0-113.778-38.207-113.778-85.333v-170.667c0-47.127 50.938-85.333 113.778-85.333h227.556v-227.556c0-62.839 50.938-113.778 113.778-113.778h113.778c62.839 0 113.778 50.938 113.778 113.778v227.556h227.556c62.839 0 113.778 38.207 113.778 85.333v170.667c0 47.127-50.938 85.333-113.778 85.333h-227.556v227.556c0 62.839-50.938 113.778-113.778 113.778h-113.778zM512 837.079c31.42 0 56.889-25.469 56.889-56.889v-284.444h284.444c31.42 0 56.889-25.469 56.889-56.889s-25.469-56.889-56.889-56.889h-284.444v-284.444c0-31.42-25.469-56.889-56.889-56.889s-56.889 25.469-56.889 56.889v284.444h-284.444c-31.42 0-56.889 25.469-56.889 56.889s25.469 56.889 56.889 56.889h284.444v284.444c0 31.42 25.469 56.889 56.889 56.889z" />
<glyph unicode="&#xe607;" glyph-name="briefcase" data-tags="briefcase, portfolio, suitcase, work, job, employee" d="M960 704h-256v64c0 35.2-28.8 64-64 64h-256c-35.204 0-64-28.8-64-64v-64h-256c-35.2 0-64-28.8-64-64v-576c0-35.202 28.796-64 64-64h896c35.2 0 64 28.798 64 64v576c0 35.2-28.8 64-64 64zM384 767.884c0.034 0.040 0.074 0.082 0.114 0.116h255.772c0.042-0.034 0.082-0.076 0.118-0.116v-63.884h-256.004v63.884zM960 448h-128v-96c0-17.602-14.4-32-32-32h-64c-17.604 0-32 14.398-32 32v96h-384v-96c0-17.602-14.4-32-32-32h-64c-17.602 0-32 14.398-32 32v96h-128v64h896v-64z" />
<glyph unicode="&#xe608;" horiz-adv-x="1113" d="M871.7 201.113c81.384 78.463 131.141 183.208 131.141 298.303 0 243.25-222.014 440.43-495.91 440.43-273.886 0-495.91-197.181-495.91-440.43s222.025-440.43 495.91-440.43c77.406 0 150.669 15.778 215.963 43.856 42.020-47.61 161.347-154.393 379.129-142.953 0 0-213.208 62.497-230.323 241.224v0z" />
<glyph unicode="&#xe609;" horiz-adv-x="1113" d="M691.498 651.783c-9.213 8.522-19.825 12.794-31.859 12.794-12.045 0-22.669-4.625-31.507-13.874-9.202-9.238-10.998-18.080-10.998-30.169v-176.172c0-9.249-5.984-14.809-12.354-20.854-6.733-6.397-14.877-9.249-24.432-9.249-8.497 0-15.924 2.499-22.999 8.181-7.086 5.34-6.337 11.253-6.337 21.922v176.172c0 12.794-8.893 21.295-17.732 30.522-9.202 8.897-19.825 13.521-32.212 13.521-11.681 0-21.941-4.272-31.143-12.442-9.202-8.533-18.095-19.874-18.095-31.601v-176.172c-0.705-9.601 0.033-15.514-6.689-21.207-7.075-6.045-14.514-8.897-22.658-8.897-9.202 0-17.346 2.852-23.716 9.249-6.788 6.045-13.059 11.264-13.059 20.854 2.491-0.077 0 176.172 0 176.172-1.058 11.374-3.218 23.068-11.703 31.601-8.497 8.17-18.767 12.442-30.802 12.442-6.37 0-12.387-1.42-18.051-3.556-5.664-2.488-10.271-5.693-14.514-9.954-4.254-4.261-7.439-9.238-9.907-14.92-2.832-5.704-3.89-11.385-3.185-17.441v-173.507c0-16.351 3.185-31.997 9.907-46.939 6.37-14.931 15.219-27.736 26.548-38.758s24.421-19.918 39.992-26.316c15.219-6.739 31.507-9.943 48.853-9.943 14.161 0 27.606 2.125 41.061 6.75 13.456 4.272 25.842 11.374 37.171 20.623 22.636-18.476 48.831-27.373 78.927-27.373 16.277 0 31.859 3.204 47.42 9.601 15.219 6.397 28.675 14.931 40.003 25.6s20.52 23.816 27.606 38.758c6.722 14.931 10.271 30.94 10.271 47.996v177.064c-0.011 11.374-4.617 20.975-13.808 29.52v0z" />
<glyph unicode="&#xe60a;" glyph-name="linkedin" data-tags="linkedin, brand, social" d="M384 576h177.106v-90.782h2.532c24.64 44.194 84.958 90.782 174.842 90.782 186.946 0 221.52-116.376 221.52-267.734v-308.266h-184.61v273.278c0 65.184-1.334 149.026-96.028 149.026-96.148 0-110.82-70.986-110.82-144.292v-278.012h-184.542v576zM64 576h192v-576h-192v576zM256 736c0-53.019-42.981-96-96-96s-96 42.981-96 96c0 53.019 42.981 96 96 96s96-42.981 96-96z" />
<glyph unicode="&#xe60b;" glyph-name="calendar" data-tags="calendar" d="M602.245 408.113v0c-32.87 0-59.47-26.63-59.47-59.5 0-32.81 26.654-59.47 59.47-59.47v0c32.81 0 59.47 26.66 59.47 59.47 0 32.87-26.6 59.5-59.47 59.5zM421.755 469.631c32.828 0 59.47 26.642 59.47 59.47 0 32.858-26.642 59.47-59.47 59.47s-59.47-26.612-59.47-59.47c0-32.828 26.642-59.47 59.47-59.47zM602.245 588.572v0c-32.87 0-59.47-26.612-59.47-59.47 0-32.828 26.6-59.47 59.47-59.47v0c32.81 0 59.47 26.642 59.47 59.47 0 32.858-26.6 59.47-59.47 59.47zM602.353 830.386h-180.706v-120.471h180.706v120.471zM783.782 469.631c33.388 0 60.512 26.642 60.512 59.47 0 32.858-27.064 59.47-60.512 59.47s-60.512-26.612-60.512-59.47c0-32.828 27.124-59.47 60.512-59.47zM783.782 289.142c33.388 0 60.512 26.66 60.512 59.47 0 32.87-27.064 59.47-60.512 59.47s-60.512-26.6-60.512-59.47c0-32.81 27.124-59.47 60.512-59.47zM421.755 289.142c32.828 0 59.47 26.66 59.47 59.47 0 32.87-26.612 59.5-59.47 59.5s-59.47-26.63-59.47-59.5c0-32.81 26.642-59.47 59.47-59.47zM240.218 106.563c33.4 0 60.512 27.124 60.512 60.512 0 33.449-27.112 60.512-60.512 60.512-33.437 0-60.512-27.064-60.512-60.512 0-33.388 27.106-60.512 60.512-60.512zM903.529 830.386h-60.235v-120.471h60.235v-662.588h-783.059v662.588h60.235v120.471h-60.235c-59.525 0-120.471-35.557-120.471-95.106v-700.609c0-59.555 48.261-107.815 107.791-107.815h808.418c59.531 0 107.791 48.261 107.791 107.815v700.609c0 59.549-60.946 95.106-120.471 95.106zM240.218 289.142c33.4 0 60.512 26.66 60.512 59.47 0 32.87-27.112 59.5-60.512 59.5-33.437 0-60.512-26.63-60.512-59.5 0-32.81 27.106-59.47 60.512-59.47zM240.218 469.631c33.4 0 60.512 26.642 60.512 59.47 0 32.858-27.112 59.47-60.512 59.47-33.437 0-60.512-26.612-60.512-59.47 0-32.828 27.106-59.47 60.512-59.47zM421.755 106.563c32.828 0 59.47 27.124 59.47 60.512 0 33.449-26.642 60.512-59.47 60.512s-59.47-27.064-59.47-60.512c0-33.388 26.642-60.512 59.47-60.512zM300.454 710.91c33.4 0 60.512 26.871 60.512 59.988v119.971c0 33.141-27.082 59.988-60.512 59.988-33.406 0-60.512-26.847-60.512-59.988v-119.971c0-33.117 27.106-59.988 60.512-59.988zM723.546 710.91c33.388 0 60.512 26.871 60.512 59.988v119.971c0 33.141-27.124 59.988-60.512 59.988-33.449 0-60.512-26.847-60.512-59.988v-119.971c0-33.117 27.124-59.988 60.512-59.988z" />
<glyph unicode="&#xe60c;" glyph-name="write" data-tags="write" d="M476.444 49.778c-21.333 0-49.778-53.333-49.778-53.333-39.111-39.111-59.864-60.444-28.444-60.444h568.889c31.42 0 56.889 25.469 56.889 56.889s-25.469 56.889-56.889 56.889h-490.667zM655.189 834.287l61.355-47.718c25.412-19.769 30.561-57.156 11.503-83.513l-470.266-576.831c-19.058-26.357-55.114-31.704-80.526-11.93l-61.355 47.713c-25.418 19.769-30.561 57.156-11.503 83.519l340.19 417.513 43.85-43.042c53.635-53.641 134.087 26.812 80.452 80.447l-52.059 51.058 57.833 70.855c19.058 26.357 55.114 31.698 80.526 11.93zM674.765 936.368c-53.783 39.157-130.088 28.57-170.428-23.632 0 0-444.985-576.489-447.733-581.353l-53.049-82.495c0 0-5.33-133.33-0.893-309.333-0.393-3.76 338.671 106.667 338.671 106.667s39.703 50.961 49.778 64l437.857 566.187c40.34 52.207 29.44 126.271-24.348 165.427l-129.855 94.532z" />
<glyph unicode="&#xe60d;" glyph-name="profile" data-tags="profile" d="M960-64h-896c-35.347 0-64 28.659-64 64v64h6.451c25.792 152.883 141.613 274.221 291.040 308.973-26.029 40.083-41.491 87.674-41.491 139.027v192c0 141.382 114.618 256 256 256 141.389 0 256-114.618 256-256v-192c0-51.354-15.462-98.944-41.485-139.027 149.427-34.752 265.242-156.090 291.034-308.973h6.451v-64c0-35.341-28.646-64-64-64zM640 704c0 70.688-57.306 128-128 128s-128-57.312-128-128v-192c0-70.694 57.306-128 128-128s128 57.306 128 128v192zM640 256h-256c-119.149 0-218.394-81.779-246.95-192h749.907c-28.557 110.221-127.808 192-246.957 192z" />
<glyph unicode="&#xe60e;" glyph-name="yahoo" data-tags="yahoo" horiz-adv-x="1078" d="M1069.837 834.568c-22.571-99.926-110.624-453.007-147.688-688.732l0.065-0.129-49.955 7.799-0.14-0.038v0.022c-0.022 0-0.113 0-0.135-0.022l0.135 0.135c32.682 232.092 52.526 475.998 71.599 719.198 0 48.473 31.868 67.433 64.022 67.433 5.637 0 13.959-1.17 13.959-1.17h0.032c33.679-5.643 56.164-26.371 56.164-62.033 0-11.819-4.84-28.429-8.057-42.464zM938.501-7.090c0-48.257-31.787-66.053-60.879-66.053-40.232 0-72.806 20.987-72.806 61.968 0 34.767 21.024 67.072 63.148 67.072 40.373 0 70.537-24.236 70.537-62.987zM458.138 363.663l-1.019-433.653h-111.659l0.14 433.653c-59.845 104.017-235.816 420.837-345.6 587.194h133.966c69.918-124.583 177.238-298.862 267.9-449.816 89.39 147.763 229.834 378.497 267.932 449.816l134.915-0.075c0.032 0.032 0.065 0.065 0.102 0.075-50.645-68.764-234.997-390.193-346.678-587.194z" />
<glyph unicode="&#xe60f;" glyph-name="outlook" data-tags="outlook" horiz-adv-x="1078" d="M1077.895 247.32c0-20.394-18.184-46.29-35.7-46.29h-305.545v73.13h287.572v201.108l-188.384-142.535c-10.919-9-26.209-9-37.187-0.065l-67.050 55.156v93.453l85.612-71.071 171.062 138.197h-251.624v73.13h305.545c17.516 0 35.7-17.925 35.7-38.287v-27.573c0-0.83-0.065-1.725-0.135-2.587 0.070-0.895 0.135-1.687 0.135-2.582v-303.185zM0 890.037l682.259 60.82v-1024l-682.259 50.715v912.465zM339.208 173.431c101.716 0 200.461 85.278 200.461 271.236 0 152.748-77.738 259.746-194.258 259.746-121.915 0-202.687-104.874-202.752-269.183 0-164.142 85.45-261.799 196.549-261.799zM342.269 592.214c53.625 0 75.356-76.897 75.356-152.781 0-91.47-29.443-152.781-75.356-152.781-50.451 0-77.63 65.547-77.63 152.781 0 74.854 20.943 152.781 77.63 152.781z" />
<glyph unicode="&#xe610;" glyph-name="mail" data-tags="mail" horiz-adv-x="1365" d="M589.606 326.046c-26.692 11.612-63.433 41.807-84.787 61.884l-462.24 434.654c-21.354 20.070-39.704 61.945-25.443 87.791 11.578 21.019 33.355 40.482 74.213 40.482h1182.932c0 0 51.732-1.154 75.974-43.459 14.671-25.58-5.181-67.659-26.726-87.559l-507.249-468.262c0 0-97.894-81.572-226.673-25.532zM94.153-73.095c0 0-94.153 8.547-94.153 93.027v690.299c0 29.628 16.732 36.803 37.41 15.974l199.994-201.708c20.671-20.821 28.208-59.822 16.862-87.122l-143.797-345.784c-11.339-27.313-6.069-30.481 11.796-7.134l200.888 262.738c17.865 23.381 50.695 27.259 73.305 8.731l88.986-72.998c22.637-18.534 62.341-43.773 89.825-53.234 65.208-22.33 180.893-47.916 254.43 16.828l129.42 110.558c22.282 19.005 54.525 15.278 72.015-8.363l212.576-286.877c17.49-23.668 22.774-20.576 11.749 6.84l-146.917 365.288c-11.025 27.43-3.256 66.56 17.367 87.45l202.083 204.657c20.617 20.849 37.342 13.735 37.342-15.899v-696.272c0 0-5.591-87.047-99.417-87.047l-1171.763 0.048z" />
<glyph unicode="&#xe611;" glyph-name="gmail" data-tags="gmail" horiz-adv-x="1365" d="M0 950.857v-1024h1365.333v1024h-1365.333zM992.829 886.236l-310.163-319.556-372.197 319.556h682.359zM184.846 751.744l380.32-340.992-380.32-301.595v642.587zM1178.924-8.522h-992.515l-1.563 61.788 406.426 323.734 91.266-94.522 95.655 94.522 402.234-323.734-1.502-61.788zM1180.426 109.156l-369.575 310.511 369.575 378.15v-688.66z" />
<glyph unicode="&#xe612;" glyph-name="facebook" data-tags="facebook" horiz-adv-x="563" d="M541.993 950.642l-135.096 0.215c-151.762 0-249.825-98.913-249.825-252.006v-116.193h-135.828c-11.74 0-21.243-9.354-21.243-20.89v-168.351c0-11.535 9.513-20.879 21.243-20.879h135.818v-424.801c0-11.535 9.503-20.879 21.243-20.879h177.203c11.74 0 21.243 9.354 21.243 20.879v424.801h158.807c11.735 0 21.238 9.344 21.238 20.879l0.067 168.351c0 5.54-2.243 10.844-6.221 14.766-3.988 3.917-9.395 6.124-15.032 6.124h-158.848v98.499c0 47.34 11.474 71.373 74.199 71.373l91.013 0.031c11.725 0 21.228 9.354 21.228 20.884v156.319c0 11.515-9.492 20.859-21.207 20.879z" />
<glyph unicode="&#xe613;" glyph-name="caret" data-tags="keyboard-arrow-down" d="M316.373 609.707l195.627-195.627 195.627 195.627 60.373-60.373-256-256-256 256z" />
<glyph unicode="&#xe614;" glyph-name="settings" data-tags="settings" d="M320 438.857c0 106.041 85.959 192 192 192s192-85.959 192-192c0-106.041-85.959-192-192-192s-192 85.959-192 192zM179.519 197.898l-30.077-30.242-5.439-4.801c-25.412-25.401-25.412-66.594 0-92.001 25.401-25.401 66.588-25.401 92.001 0l4.796 5.45 30.242 30.071c17.044 26.738 46.905 44.481 80.959 44.481 51.24 0 93.247-40.164 96-90.726v-69.274c0-35.351 28.655-64 64-64s64 28.649 64 64v69.274c2.753 50.563 44.76 90.726 96 90.726 34.054 0 63.915-17.744 80.959-44.481l30.242-30.071 4.801-5.45c25.407-25.401 66.588-25.401 91.995 0 25.412 25.407 25.412 66.6 0 92.001l-5.439 4.801-30.077 30.242c-26.738 17.044-44.481 46.905-44.481 80.959 0 51.234 40.169 93.252 90.721 96h69.279c35.345 0 64 28.655 64 64s-28.655 64-64 64h-69.279c-50.551 2.748-90.721 44.76-90.721 96 0 34.054 17.744 63.915 44.481 80.959l30.077 30.242 5.439 4.801c25.412 25.401 25.412 66.594 0 91.995-25.407 25.407-66.588 25.407-91.995 0l-4.801-5.433-30.242-30.083c-17.044-26.721-46.911-44.481-80.959-44.481-53.020 0-96 42.98-96 96v64c0 35.345-28.655 64-64 64s-64-28.655-64-64v-69.279c-2.753-50.551-44.76-90.721-96-90.721-34.059 0-63.915 17.744-80.959 44.481l-30.242 30.083-4.796 5.433c-25.412 25.407-66.6 25.407-92.001 0-25.412-25.401-25.412-66.594 0-91.995l5.439-4.801 30.077-30.242c26.738-17.044 44.481-46.905 44.481-80.959 0-51.24-40.169-93.252-90.721-96h-69.279c-35.345 0-64-28.655-64-64s28.655-64 64-64h69.279c50.551-2.748 90.721-44.766 90.721-96 0-34.054-17.744-63.915-44.481-80.959z" />
<glyph unicode="&#xe615;" glyph-name="bell" data-tags="bell" horiz-adv-x="1081" d="M445.946 40.635c0-68.642 55.455-115.553 123.87-115.553s123.87 46.911 123.87 115.553h-247.74zM512 723.301c-1.781 59.557 56.889 56.889 56.889 56.889s58.652 2.668 56.878-56.889c-0.057-1.803 70.087-27.984 128.011-69.336 45.050-32.159 79.69-77.608 91.352-101.33 12.447-21.333 8.203-71.384 8.203-71.384v-269.949h-568.889v269.949c0 0-4.244 50.051 8.198 71.384 12.066 24.53 58.038 66.526 104.693 99.556 56.502 39.999 114.716 69.353 114.665 71.111zM1023.027 97.524c52.907 0 73.119 60.848 49.892 73.791-15.081 8.402-85.919 31.266-105.808 87.831v234.826c0 99.55-118.955 267.207-284.444 304.885v69.148c0 45.756-69.097 82.853-114.705 82.853-45.614 0-112.85-37.097-112.85-82.853v-68.255c-130.668-37.336-284.444-181.333-284.444-306.671v-231.031c-18.068-58.26-94.766-82.216-108.39-93.315-20.645-16.833 0.438-71.208 53.345-71.208h907.406z" />
<glyph unicode="&#xe616;" glyph-name="home" data-tags="home" horiz-adv-x="1138" d="M113.778 481.524l448 298.667 462.222-270.222v-320c0-113.783-21.379-149.333-142.222-149.333h-625.778c-120.843 0-142.222 42.661-142.222 156.444v284.444zM0 585.881v-453.006c0-113.783 56.934-206.017 177.778-206.017h775.111c120.843 0 184.889 92.234 184.889 206.017v489.057l-568.889 328.926-568.889-364.976z" />
<glyph unicode="&#xe617;" glyph-name="letter" data-tags="letter" d="M621.608 403.717l288.614 292.278v-598.471c0-31.414-25.469-56.889-56.889-56.889h-682.667c-31.42 0-56.889 25.475-56.889 56.889v594.779l288.614-288.586c60.541-60.535 158.674-60.535 219.216 0zM1019.733 818.306c12.254 34.52-7.765 63.704-36.693 72.812-31.306 36.642-77.739 59.739-129.707 59.739h-682.667c-62.481 0-117.060-33.513-146.773-83.627-16.475-11.639-25.907-30.51-20.196-52.053-2.361-11.31-3.698-22.972-3.698-34.987v-682.667c0-94.259 76.407-170.667 170.667-170.667h682.667c94.259 0 170.667 76.407 170.667 170.667v682.667c0 13.119-1.445 25.833-4.267 38.116zM874.382 833.091l-252.774-258.714c-60.541-60.535-158.674-60.535-219.216 0 0 0-173.119 178.426-256.188 257.013 7.447 3.578 15.656 5.689 24.462 5.689h682.667c7.464 0 14.524-1.377 21.049-3.988z" />
<glyph unicode="&#xe618;" glyph-name="menu" data-tags="menu" d="M128 725.334h768q17.667 0 30.167-12.5t12.5-30.167-12.5-30.167-30.167-12.5h-768q-17.667 0-30.167 12.5t-12.5 30.167 12.5 30.167 30.167 12.5zM128 213.334h768q17.667 0 30.167-12.5t12.5-30.167-12.5-30.167-30.167-12.5h-768q-17.667 0-30.167 12.5t-12.5 30.167 12.5 30.167 30.167 12.5zM128 469.334h768q17.667 0 30.167-12.5t12.5-30.167-12.5-30.167-30.167-12.5h-768q-17.667 0-30.167 12.5t-12.5 30.167 12.5 30.167 30.167 12.5z" />
<glyph unicode="&#xe619;" glyph-name="az" data-tags="az" horiz-adv-x="935" d="M459.451 950.857l157.456-153.6h-314.907l157.451 153.6zM459.451-73.143l-157.451 153.6h314.907l-157.456-153.6zM925.58 629.784l-267.544-368.631h270.429v-75.625h-396.266v37.287c0 4.688 0.837 9.198 2.524 13.544 1.678 4.336 3.842 8.379 6.487 12.132l268.266 370.39h-260.332v75.273h385.812v-34.82c0-10.792-3.125-20.64-9.376-29.549zM413.037 191.686c-5.409 4.1-9.318 9.198-11.723 15.302l-38.939 103.762h-215.984l-38.943-103.762c-1.923-5.4-5.712-10.325-11.357-14.777-5.65-4.457-12.564-6.683-20.734-6.683h-75.357l204.804 508.625h99.159l204.804-508.625h-75.001c-8.415 0-15.324 2.052-20.729 6.157zM274.036 546.773c-2.885 7.502-6.073 16.357-9.554 26.557-3.491 10.2-6.914 21.281-10.28 33.24-3.366-11.959-6.669-23.102-9.915-33.418-3.246-10.32-6.433-19.345-9.554-27.083l-63.461-168.488h166.226l-63.461 169.192z" />
<glyph unicode="&#xe61a;" glyph-name="repost" data-tags="repost" horiz-adv-x="1020" d="M665.404 293.769h44.277v-44.065h44.277v-44.065h44.277v-44.065h44.277v44.065h44.278v44.065h44.277v44.065h44.278v44.068h44.277v88.13h-132.835v308.458h-531.343v-44.065h44.277v-44.065h44.278v-44.065h309.951v-176.263h-132.835v-88.13h44.277v-44.068zM355.454 602.231h-44.277v44.065h-44.278v44.065h-44.278v44.065h-44.278v-44.065h-44.278v-44.065h-44.277v-44.065h-44.278v-44.068h-44.278v-88.13h132.834v-308.458h531.343v44.065h-44.277v44.065h-44.278v44.065h-309.951v176.263h132.834v88.13h-44.277v44.068z" />
<glyph unicode="&#xe61b;" glyph-name="up" data-tags="up" horiz-adv-x="1365" d="M66.606 658.825c0 0-66.606 0.677-66.606-73.176v-583.498c0 0 14.842-66.15 61.161-66.15h178.142c0 0 55.654 63.147 55.654 124.206l55.649-3.738c0 0 45.915-40.294 66.788-69.615 33.388-39.589 55.649-50.853 55.649-50.853h512.637c0 0 82.842 43.56 82.842 122.647l-1.855 362.968 197.046-3.732c71.822 0 101.621 58.146 101.621 133.382s-57.276 107.56-129.161 107.56h-388.87c0 0-65.911-1.445-65.911 66.822 0 0-11.48-58.971-11.48-31.090 0 27.887 61.161 33.559 61.161 107.383v62.589c0 0-29.798 95.471-119.541 95.471h-36.17c0 0-89.276-28.763-115.94-109.557-26.613-80.765-129.337-306.591-262.61-306.591v55.945c0 0-13.449 59.028-53.8 59.028h-176.407z" />
<glyph unicode="&#xe61c;" glyph-name="trash" data-tags="trash" d="M967.111 675.556h-56.889v-625.778c0-31.42-25.469-56.889-56.889-56.889 0-31.42-25.469-56.889-56.889-56.889h-568.889c-31.42 0-56.889 25.469-56.889 56.889-31.42 0-56.889 25.469-56.889 56.889v625.778h-56.889c-31.42 0-56.889 25.469-56.889 56.889s25.469 56.889 56.889 56.889h170.667v113.778c0 31.42 25.469 56.889 56.889 56.889h398.222c10.593 0 19.951-3.675 28.444-8.721 8.494 5.046 17.852 8.721 28.444 8.721 31.42 0 56.889-25.469 56.889-56.889v-113.778h170.667c31.42 0 56.889-25.469 56.889-56.889s-25.469-56.889-56.889-56.889zM682.667 846.222h-341.333v-56.889h341.333v56.889zM796.444 675.556h-568.889v-625.778h568.889v625.778zM398.222 561.778c31.42 0 56.889-25.469 56.889-56.889v-284.444c0-31.42-25.469-56.889-56.889-56.889s-56.889 25.469-56.889 56.889v284.444c0 31.42 25.469 56.889 56.889 56.889zM625.778 561.778c31.42 0 56.889-25.469 56.889-56.889v-284.444c0-31.42-25.469-56.889-56.889-56.889s-56.889 25.469-56.889 56.889v284.444c0 31.42 25.469 56.889 56.889 56.889z" />
<glyph unicode="&#xe61d;" glyph-name="people" data-tags="people" horiz-adv-x="1010" d="M1004.474 5.95c0 0-1.936 186.286-13.329 205.586-16.942 28.754-56.367 48.52-129.583 79.094-72.96 30.518-96.294 56.24-96.294 111.34 0 33.088 22.278 22.284 32.082 82.83 4.059 25.144 23.729 0.434 27.504 57.766 0 22.871-10.739 28.565-10.739 28.565s5.457 33.819 7.588 59.852c2.659 32.442-16.354 116.239-117.624 116.239-101.284 0-120.278-83.795-117.612-116.239 2.138-26.041 7.586-59.852 7.586-59.852s-10.718-5.709-10.718-28.565c3.774-57.347 23.419-32.633 27.504-57.766 9.772-60.551 32.082-49.742 32.082-82.83 0-37.462-10.837-61.33-40.699-82.389 159.417-79.799 180.778-96.068 180.778-167.402v-146.233h221.5zM523.518 262.966c-97.317 40.667-128.398 74.972-128.398 148.411 0 44.109 29.708 29.696 42.764 110.46 5.389 33.487 31.65 0.548 36.671 77.032 0 30.481-14.309 38.055-14.309 38.055s7.286 45.082 10.134 79.814c3.539 43.258-21.79 154.995-156.847 154.995-135.014 0-160.375-111.737-156.8-154.995 2.852-34.723 10.104-79.814 10.104-79.814s-14.309-7.586-14.309-38.055c5.035-76.482 31.26-43.537 36.692-77.032 13.043-80.758 42.764-66.341 42.764-110.46 0-73.44-31.109-107.749-128.398-148.411-29.648-12.398-82.918-31.598-82.918-77.781v-179.233h683.485v134.392c0 42.138-82.96 81.819-180.567 122.623z" />
<glyph unicode="&#xe61e;" glyph-name="video" data-tags="video" d="M113.778 277.333v341.333h455.111v-341.333h-455.111zM910.222 163.556v-56.889c0-31.42-25.469-56.889-56.889-56.889h-682.667c-31.42 0-56.889 25.469-56.889 56.889v56.889h796.444zM910.222 618.667v-341.333h-227.556v341.333h227.556zM170.667 846.222h682.667c31.42 0 56.889-25.469 56.889-56.889v-56.889h-796.444v56.889c0 31.42 25.469 56.889 56.889 56.889zM170.667 960c-94.259 0-170.667-76.407-170.667-170.667v-682.667c0-94.254 76.407-170.667 170.667-170.667h682.667c94.259 0 170.667 76.413 170.667 170.667v682.667c0 94.259-76.407 170.667-170.667 170.667h-682.667z" />
<glyph unicode="&#xe61f;" glyph-name="photo" data-tags="photo" d="M170.667 846.222h682.667c31.42 0 56.889-25.469 56.889-56.889v-682.667c0-31.42-25.469-56.889-56.889-56.889h-682.667c-31.42 0-56.889 25.469-56.889 56.889v682.667c0 31.42 25.469 56.889 56.889 56.889zM170.667 960c-94.259 0-170.667-76.407-170.667-170.667v-682.667c0-94.259 76.407-170.667 170.667-170.667h682.667c94.259 0 170.667 76.407 170.667 170.667v682.667c0 94.259-76.407 170.667-170.667 170.667h-682.667zM228.056 391.111c-1.303-5.541-0.421-86.636 0-137.842 0.165-19.479 26.266-32.825 26.266-32.825h515.026c13.955 0 25.572 11.981 26.647 33.86 1.013 20.759 0 65.439 0 65.439s-66.958 151.717-74.217 163.812c-12.601 20.998-56.439 27.227-85.333-10.667-23.034-30.214-23.057-53.606-39.111-71.111-14.757-16.077-64-21.333-84.446 46.222-6.94 22.938-54.972 120.616-66.668 143.997-14.217 28.444-76.026 29.992-99.556-8.886-16.174-26.726-116.804-184.377-118.608-192zM624.89 672.011c0-35.903 25.025-52.457 58.664-52.457s56.001 19.211 56.001 55.114c0 35.914-24.138 57.776-57.776 57.776s-56.889-24.513-56.889-60.433z" />
<glyph unicode="&#xe620;" glyph-name="docs" data-tags="file" d="M170.667 618.667h455.111c31.42 0 56.889-25.469 56.889-56.889v-455.111c0-31.42-25.469-56.889-56.889-56.889h-455.111c-31.42 0-56.889 25.469-56.889 56.889v455.111c0 31.42 25.469 56.889 56.889 56.889zM796.444 277.333v284.444c0 94.259-76.407 170.667-170.667 170.667h-284.444v56.889c0 31.42 25.469 56.889 56.889 56.889h455.111c31.42 0 56.889-25.469 56.889-56.889v-455.111c0-31.42-25.469-56.889-56.889-56.889h-56.889zM170.667 732.444c-94.259 0-170.667-76.407-170.667-170.667v-455.111c0-94.259 76.407-170.667 170.667-170.667h455.111c94.259 0 170.667 76.407 170.667 170.667v56.889h56.889c94.259 0 170.667 76.407 170.667 170.667v455.111c0 94.254-76.407 170.667-170.667 170.667h-455.111c-94.259 0-170.667-76.413-170.667-170.667v-56.889h-56.889zM227.556 277.333v-113.778h341.333v113.778h-341.333zM227.556 504.889v-113.778h341.333v113.778h-341.333z" />
<glyph unicode="&#xe621;" glyph-name="news" data-tags="news" d="M170.667 846.222h682.667c31.42 0 56.889-25.469 56.889-56.889v-682.667c0-31.42-25.469-56.889-56.889-56.889h-682.667c-31.42 0-56.889 25.469-56.889 56.889v682.667c0 31.42 25.469 56.889 56.889 56.889zM113.778 960c-62.839 0-113.778-50.938-113.778-113.778v-796.444c0-62.839 50.938-113.778 113.778-113.778h796.444c62.839 0 113.778 50.938 113.778 113.778v796.444c0 62.839-50.938 113.778-113.778 113.778h-796.444zM227.556 732.444v-113.778h568.889v113.778h-568.889zM227.556 277.333v-113.778h568.889v113.778h-568.889zM227.556 504.889v-113.778h568.889v113.778h-568.889z" />
<glyph unicode="&#xe622;" glyph-name="search" data-tags="search" d="M995.834-35.834c-37.552-37.558-98.446-37.558-135.999 0l-169.728 169.739c-69.791-44.737-152.28-71.447-241.334-71.447-247.848 0-448.774 200.914-448.774 448.768 0 247.859 200.926 448.774 448.774 448.774 247.854 0 448.774-200.914 448.774-448.774 0-89.048-26.715-171.537-71.441-241.328l169.728-169.728c37.558-37.558 37.558-98.446 0-136.004zM448.774 831.778c-177.038 0-320.558-143.514-320.558-320.552 0-177.033 143.519-320.546 320.558-320.546s320.552 143.514 320.552 320.546c0 177.038-143.514 320.552-320.552 320.552z" />
<glyph unicode="&#xe623;" glyph-name="connect" data-tags="connect" d="M916.736 622.302c18.762 32.62 32.552 70.093 32.552 109.955 0 125.599-104.55 227.743-235.076 227.743-130.475 0-235.844-102.144-235.844-227.743 0-8.334 1.081-16.481 2.002-24.553-39.236 27.847-87.211 44.868-139.583 44.868-130.497 0-236.658-102.218-236.658-227.794 0-39.862-6.969-77.335 11.793-109.955-68.659-47.047-115.922-133.831-115.922-220.791v-174.16l64.631-34.697c29.793-22.005 100.238-49.175 280.502-49.175 166.815 0 235.787 40.016 263.817 63.892l37.786 34.594v110.655c53.897-1.013 45.608-1.661 67.527-1.661 166.764 0 309.737 87.506 309.737 87.506v180.252c0 86.966-38.576 164.011-107.264 211.063v0 0zM715.765 844.311c65.917 0 119.342-50.187 119.342-112.054 0-61.924-53.424-112.031-119.342-112.031-65.843 0-119.319 50.108-119.319 112.031 0 61.867 53.476 112.054 119.319 112.054v0 0zM340.787 636.86c65.894 0 119.319-50.216 119.319-112.082 0-61.918-53.424-112.031-119.319-112.031-65.917 0-119.342 50.113-119.342 112.031 0 61.867 53.424 112.082 119.342 112.082v0 0zM538.948 87.478c0 0-36.318-35.76-184.422-35.76-168.158 0-246.738 35.76-246.738 35.76v116.287c0 79.121 62.185 117.999 146.421 117.999h137.188c84.235 0 147.553-38.878 147.553-117.999v-116.287zM916.213 294.952c0 0-40.579-35.76-188.689-35.76-25.39 0-51.996 1.013-73.131 2.441-15.002 62.726-53.47 116.935-106.394 153.19 17.63 30.697 27.819 65.838 29.002 103.1 24.895 16.583 55.342 16.43 88.155 16.43h101.211c84.315 0 149.845-43.958 149.845-123.113v-116.287z" />
<glyph unicode="&#xe624;" glyph-name="check" data-tags="check" horiz-adv-x="1365" d="M1359.735 807.289l-846.551-865.564c-7.418-7.629-19.507-7.629-26.965 0l-480.654 491.503c-7.418 7.589-7.418 19.945 0 27.534l116.81 119.427c7.465 7.612 19.53 7.612 26.971 0l350.379-358.235 716.277 732.325c7.424 7.629 19.484 7.629 26.908 0l116.827-119.41c7.463-7.583 7.463-19.945 0-27.58v0 0z" />
<glyph unicode="&#xe625;" glyph-name="close" data-tags="close" d="M1024 853.003l-106.951 106.997-405.038-408.661-405.060 408.661-106.951-106.997 407.233-407.415-404.241-407.785 104.408-101.803 404.611 404.77 404.611-404.77 104.368 101.803-404.184 407.785 407.194 407.415z" />
<glyph unicode="&#xe626;" glyph-name="logo" data-tags="logo" horiz-adv-x="5177" d="M4053.885-64c-66.287 51.524-122.135 144.287-157.047 211.712 66.674 65.621 108.214 153.81 108.214 251.529 0 201.973-174.933 365.71-390.69 365.71-215.762 0-390.696-163.738-390.696-365.71 0-202.001 174.933-365.716 390.696-365.716 49.596 0 96.671 9.523 140.356 25.333 119.273-94.236 299.167-122.857 299.167-122.857v0zM4947.206 358.855l199.162 200.385c19.837 19.809 30.521 44.186 30.521 71.617 0 27.426-10.684 51.809-30.521 71.617-21.367 19.046-45.022 28.951-72.494 29.713-27.472 0-38.679-9.904-58.516-29.713l-228.921-227.812v383.243c0 28.188-9.921 52.571-28.234 72.38-19.081 19.809-54.42 29.713-81.124 29.713-27.472 0-37.916-10.667-56.997-31.238-19.837-21.333-28.996-44.954-28.996-70.855v-771.049c0-28.951 9.921-52.571 30.527-72.38 19.837-19.814 30.282-29.719 55.467-29.719 25.941 0 60.518 9.904 80.361 31.238 19.075 20.577 28.996 44.191 28.996 70.861v156.188l228.921-226.287c21.362-21.333 32.575-31.238 60.041-29.713 27.472 1.525 51.126 11.429 70.969 29.713 19.837 19.814 30.521 43.429 30.521 70.861 0 27.426-10.684 51.809-30.521 72.38l-199.162 198.855zM4182.847 931.049c-18.313-18.29-28.234-40.385-31.283-66.287v-610.287c0-36.568 6.866-70.855 21.362-102.855 14.501-32.762 21.891-61.713 47.076-86.096 24.417-24.383 53.413-44.191 86.989-58.67 32.814-15.235 67.914-22.096 106.064-22.096h22.13c27.472 3.812 50.364 15.241 67.914 34.287 17.55 18.284 26.709 40.38 26.709 64.762-1.525 27.432-12.971 50.284-35.863 68.574-22.892 18.284-48.839 27.426-79.36 27.426-23.654 0-30.288 6.855-45.545 21.333-15.263 13.716-22.13 31.238-22.13 52.571v604.951c-2.293 28.956-12.208 52.577-30.527 72.385-18.313 19.046-53.652 28.951-79.593 28.951-26.709-1.525-36.392-10.667-53.942-28.951v0zM2568.954 932.574c-19.843-18.29-28.996-41.148-28.996-68.574v-502.096c0.762-57.145 10.678-108.954 30.521-155.426 19.837-46.478 46.546-86.096 80.122-118.858 33.576-33.525 73.256-58.67 119.040-76.191 45.784-18.284 94.618-26.67 147.274-26.67 48.833 0 93.855 8.385 136.585 25.907 41.973 17.522 80.885 43.429 116.753 76.954 9.159 8.38 15.263 18.284 19.837 30.475 3.817 11.429 5.342 23.62 5.342 35.812-0.762 12.186-3.812 23.615-8.391 35.806-5.342 11.429-12.971 21.333-22.892 30.475-22.892 19.809-46.546 29.719-72.494 29.719-25.941-0.762-48.833-9.91-70.201-28.194-13.733-13.716-30.521-24.383-48.839-31.238-19.075-7.617-41.205-10.667-67.146-10.667-24.422 0-47.314 3.812-67.914 12.954-20.605 9.142-38.155 21.333-53.419 37.33-15.258 16.003-27.466 34.287-35.863 54.858-9.153 20.571-12.971 42.667-12.971 65.525v170.667h290.731c25.179 0 48.071 9.904 67.908 29.713 19.843 19.809 30.527 41.904 30.527 67.812s-9.159 48.759-27.472 68.574c-18.313 19.046-41.967 28.951-70.963 28.951h-290.731v128.762c-2.293 32-12.208 59.426-30.521 81.522-18.318 22.096-40.448 33.525-67.152 33.525-25.947 0-48.839-9.142-68.676-27.426v0zM1820.382 943.241c-11.446-5.336-21.367-12.191-30.527-20.577-9.153-9.142-16.788-19.046-22.892-30.475s-8.391-22.858-8.391-35.044v-506.67c0-49.522 9.921-96.762 29.759-140.954 19.843-44.191 47.314-83.046 80.885-116.571 33.576-33.525 73.256-59.426 117.515-79.235s90.044-28.956 138.877-28.956c48.839 0 96.148 9.148 140.407 28.194s82.409 44.954 115.985 78.473c33.576 33.525 59.517 72.385 79.36 116.571 19.837 44.191 29.759 92.194 29.759 142.478 0 53.333-9.159 100.574-26.709 142.478s-44.254 80.759-79.36 117.333c-30.521 28.188-63.334 50.284-98.435 67.044-35.1 16.765-71.726 27.432-108.356 33.525-37.387 5.336-77.067 5.336-115.223 0-38.15-6.093-74.018-17.522-109.119-35.044v173.71c0 12.954-3.049 25.907-7.629 38.098-5.342 12.191-12.976 23.62-22.13 32.762-9.159 9.142-19.843 15.997-32.051 22.096-12.208 5.33-24.417 7.617-36.625 6.855-12.208 0.762-23.654-1.525-35.1-6.093v0zM1967.65 413.713c9.159 20.571 21.367 38.861 37.393 54.858 15.263 15.241 33.576 28.188 54.181 38.093 19.837 9.148 41.967 14.478 65.621 14.478 22.13 0 43.497-4.568 64.859-13.716 20.605-9.142 38.918-21.333 54.943-36.568 15.263-15.241 28.234-33.525 37.393-54.096 9.153-21.333 13.733-43.429 13.733-66.287 0-23.62-4.58-45.716-13.733-66.287-9.159-21.333-22.13-38.855-37.393-54.096-16.026-15.235-34.338-27.426-54.943-36.568-21.362-9.142-42.729-13.716-64.859-13.716-23.654 0-45.784 4.574-65.621 13.716-20.605 9.142-38.918 21.333-54.181 36.568-16.026 15.241-28.234 32.762-37.393 54.096-9.153 20.571-13.733 42.667-13.733 66.287 0 21.333 4.58 41.904 13.733 63.238v0zM1188.557 472.383c16.788 14.473 36.631 25.902 59.523 35.044 22.892 9.148 48.833 13.716 78.592 13.716 27.472 0 53.419-4.568 77.073-13.716 22.892-9.142 43.497-20.571 60.279-35.044h-275.467zM1366.665 179.809c-4.483-1.428-9.751-1.712-15.383-1.428-7.583 0.284-15.997 1.428-24.61 1.428-58.755 0-104.539 32-138.115 97.525h402.904c28.996-1.525 53.413 7.617 73.25 26.664 19.843 19.052 29.764 41.148 29.764 66.287 0 45.716-10.684 89.145-30.527 130.287-19.837 41.142-47.309 78.478-80.885 110.478-33.57 32-73.256 57.139-117.51 76.191-44.26 19.046-90.806 28.951-138.883 28.951-49.596 0-96.91-10.667-141.164-30.475-44.26-19.809-83.177-47.241-116.753-80.765s-59.517-73.142-79.354-117.333c-19.843-44.191-29.002-89.902-29.002-137.142 0-48.759 9.159-95.238 29.002-140.954 19.837-45.71 46.546-85.333 80.117-118.858 33.576-33.519 73.256-60.188 117.515-79.997s90.806-27.426 139.639-25.907h24.61c5.387-0.905 10.945 0 16.6 0h243.416c53.942 0 97.673 43.668 97.673 97.718 0 53.857-43.73 97.331-97.673 97.331h-244.634zM1366.665 179.809c-5.222-0.097-10.399-0.569-15.383-1.428 5.632-0.284 10.9 0 15.383 1.428v0zM1368.644 180.571l-1.98-0.762h9.512c-2.839 1.24-5.387 1.712-7.532 0.762v0zM359.1-0.762c28.996 9.142 55.706 24.383 80.122 44.191 48.839-39.617 105.301-58.67 170.166-58.67 35.1 0 68.676 6.861 102.252 20.571 32.814 13.716 61.81 32 86.226 54.858s44.26 51.052 59.517 83.052c14.501 32 22.13 66.281 22.13 102.855v379.426c0 24.383-9.916 44.954-29.759 63.238-19.843 18.29-42.735 27.432-68.676 27.432-25.947 0-48.839-9.904-67.914-29.713-19.843-19.814-28.996-43.429-28.996-69.336v-368.759c0-19.809-7.629-35.812-21.367-48.765-14.495-13.71-32.046-19.809-52.651-19.809-18.313 0-34.338 5.336-49.596 17.522-15.263 11.429-22.898 28.194-22.898 51.052v368.759c0 27.432-9.916 50.284-28.996 70.098-19.837 19.046-42.729 28.951-69.439 28.951-25.179 0-47.309-9.142-67.152-26.67-19.837-18.284-29.759-39.617-29.759-64.762v-376.377c-1.525-20.571-9.153-37.336-23.654-49.527-15.263-12.948-31.283-19.046-48.833-19.046-19.843 0-37.393 6.098-51.126 19.809-14.501 12.954-22.13 29.713-22.892 50.29v376.377c-2.293 24.383-12.214 44.954-30.527 63.238-18.313 17.527-40.442 26.67-66.384 26.67-13.739 0-26.709-3.049-38.918-7.617-12.208-5.336-22.13-12.191-31.289-21.333-9.153-9.148-16.020-19.814-21.362-32-6.104-12.191-8.397-24.383-6.866-37.336v-371.809c0-35.049 6.866-68.574 21.362-100.574 13.739-32 32.814-59.426 57.23-83.046s52.651-42.667 86.226-56.383c32.814-14.473 67.914-21.333 105.307-21.333 30.521 0 59.517 4.574 88.513 14.478v0z" />
<glyph unicode="&#xe627;" glyph-name="flag" data-tags="flag" horiz-adv-x="928" d="M639.671 263.44c0 0-128.117 165.767-273.813 54.762l-164.288 547.629c0 0 120.363 61 273.813-54.762 0 0 195.361-134.695 328.578 54.762l109.526-547.629c0 0-132.061-142.399-273.813-54.762zM341.273 8.963c-29.063-8.39-59.417 8.367-67.807 37.426l-243.026 787.063c-8.39 29.063 8.363 59.417 37.426 67.807 29.057 8.39 59.412-8.367 67.801-37.426l243.031-787.063c8.385-29.063-8.367-59.417-37.426-67.807z" />
<glyph unicode="&#xe628;" glyph-name="padlock" data-tags="padlock" horiz-adv-x="910" d="M675.664 446.236l0.028-1.36h136.476v-406.164h-714.149v406.164h136.545l-0.006 1.36h441.105zM455.111 871.543c121.64 0 220.581-91.13 220.581-203.099v-128h-441.128v128c0 111.969 98.941 203.099 220.547 203.099zM455.111 967.111c-175.963 0-318.566-133.734-318.566-298.667v-128h-45.534c-50.261 0-91.011-38.235-91.011-85.333v-426.667c0-47.132 40.75-85.333 91.011-85.333h728.201c50.261 0 91.011 38.201 91.011 85.333v426.667c0 47.098-40.75 85.333-91.011 85.333h-45.534v128c0 164.932-142.638 298.667-318.566 298.667zM455.111 344.843c-12.584 0-22.767-9.933-22.767-22.266v-178.068c0-12.334 10.183-22.266 22.767-22.266s22.767 9.933 22.767 22.266v178.068c0 12.334-10.183 22.266-22.767 22.266z" />
<glyph unicode="&#xe629;" glyph-name="move" data-tags="move" horiz-adv-x="1081" d="M865.109 665.998c-22.221 22.249-58.22 22.249-80.441 0-22.226-22.249-22.226-58.192 0-80.441l73.552-73.557h-260.887v260.887l73.557-73.552c11.11-11.088 25.663-16.668 40.22-16.668s29.11 5.581 40.22 16.668c22.226 22.249 22.226 58.192 0 80.441l-210.887 210.893-210.887-210.893c-22.249-22.249-22.249-58.192 0-80.441s58.192-22.249 80.441 0l73.557 73.552v-260.887h-260.887l73.552 73.557c22.249 22.249 22.249 58.192 0 80.441s-58.192 22.249-80.441 0l-210.893-210.887 210.893-210.887c11.082-11.11 25.663-16.668 40.22-16.668s29.138 5.558 40.22 16.668c22.249 22.221 22.249 58.22 0 80.441l-73.552 73.557h260.887v-260.887l-73.557 73.552c-22.249 22.226-58.192 22.226-80.441 0-22.249-22.221-22.249-58.22 0-80.441l210.887-210.893 210.887 210.893c22.226 22.221 22.226 58.22 0 80.441-22.221 22.226-58.22 22.226-80.441 0l-73.557-73.552v260.887h260.887l-73.552-73.557c-22.226-22.221-22.226-58.22 0-80.441 11.11-11.11 25.663-16.668 40.22-16.668s29.11 5.558 40.22 16.668l210.893 210.887-210.893 210.887z" />
<glyph unicode="&#xe62a;" glyph-name="folder-o" data-tags="folder-o" horiz-adv-x="1216" d="M348.077 813.715l-4.262-146.285h729.126v-585.146h-929.882v731.43h205.018zM0 960v-950.784c0-22.893 54.554-73.216 77.818-73.216h1062.739c23.194 0 75.443 50.323 75.443 73.216v722.355c0 46.893-44.147 82.144-92.768 82.144h-646.624c-5.382 73.139-20.608 146.285-104.154 146.285h-372.454z" />
<glyph unicode="&#xe62b;" glyph-name="family" data-tags="family" horiz-adv-x="1408" d="M1291.181 622.298c18.848 32.621 28.211 70.093 28.211 109.958 0 125.6-107.328 227.744-238.432 227.744-131.149 0-238.163-102.144-238.163-227.744 0-8.333 0.557-16.48 1.504-24.55-39.475 27.846-87.942 44.87-140.563 44.87-0.557 0-1.030-0.186-1.536-0.186-0.525 0-1.005 0.186-1.504 0.186-52.646 0-101.434-17.024-140.864-44.87 0.928 8.070 1.35 16.218 1.35 24.55 0 125.6-107.066 227.744-238.163 227.744-131.155 0-238.541-102.144-238.541-227.744 0-39.866 11.424-77.338 30.278-109.958-69.011-47.046-114.758-124.096-114.758-211.059v-180.256c0 0 143.661-87.501 311.226-87.501 22.029 0 13.696 0.646 67.853 1.658v-125.267l55.949-34.694c24.038-17.696 72.877-38.534 185.152-46.093 8.646-0.698 17.638-1.267 27.021-1.709 3.174-0.16 6.822-0.211 10.131-0.314 11.578-0.416 22.637-1.062 35.245-1.062 3.571 0 6.4 0.154 9.914 0.205 3.469-0.051 6.272-0.205 9.843-0.205 12.557 0 23.661 0.646 35.219 1.062 3.354 0.102 7.034 0.154 10.285 0.314 9.306 0.442 18.195 1.011 26.784 1.709 112.883 7.501 162.752 28.397 186.842 46.093l57.459 34.694v125.267c54.157-1.011 45.824-1.658 67.853-1.658 167.565 0 311.226 87.501 311.226 87.501v180.256c0 86.963-47.808 164.013-116.819 211.059v0zM1080.275 844.314c66.208 0 119.891-50.195 119.891-112.058 0-61.92-53.683-112.032-119.891-112.032-66.24 0-119.917 50.112-119.917 112.032 0 61.862 53.677 112.058 119.917 112.058v0zM704 52.493c-146.701 4.154-216.614 34.982-216.614 34.982v116.288c0 79.123 77.555 117.997 162.195 117.997h104.742c84.64 0 166.291-38.874 166.291-117.997v-116.288c0 0-69.914-30.829-216.614-34.982v0zM820.32 524.774c0-61.453-52.858-111.149-118.381-111.872-65.472 0.723-118.387 50.419-118.387 111.872 0 61.376 52.915 111.123 118.387 111.93 65.523-0.806 118.381-50.554 118.381-111.93v0zM323.629 844.314c66.234 0 119.891-50.195 119.891-112.058 0-61.92-53.658-112.032-119.891-112.032-66.24 0-119.891 50.112-119.891 112.032 0 61.862 53.651 112.058 119.891 112.058v0zM304.877 259.194c-148.813 0-196.57 35.757-196.57 35.757v116.288c0 79.155 79.827 123.11 164.474 123.11h101.696c32.973 0 62.432 0.16 87.494-16.422 0.608-18.918 3.309-37.318 8.096-54.861 2.963-16.947 7.795-33.165 16.499-48.243-21.286-14.534-39.322-33.165-54.579-54.112-23.878-29.037-42.362-62.304-51.168-99.078-21.229-1.427-50.426-2.438-75.942-2.438v0zM1299.693 294.95c0 0-49.818-35.757-198.637-35.757-25.517 0-56.742 1.011-77.978 2.438-4.755 19.93-12.954 38.592-22.528 56.442-18.803 39.008-46.355 72.979-81.178 96.749 11.526 20.032 16.026 41.99 18.035 65.082 2.323 12.41 4.045 24.992 4.493 38.022 25.069 16.582 54.528 16.422 87.501 16.422h101.722c84.64 0 168.57-43.955 168.57-123.11v-116.288z" />
<glyph unicode="&#xe62c;" glyph-name="folder-arrow" data-tags="folder-arrow" d="M293.12 839.526l-3.59-120.467h613.997v-662.586h-783.053v783.053h172.646zM0 960v-963.706c0-18.854 45.939-60.294 65.53-60.294h894.944c19.526 0 63.526 41.44 63.526 60.294v775.59c0 38.618-37.178 67.642-78.118 67.642h-544.531c-4.525 60.237-17.35 120.474-87.706 120.474h-313.645zM399.059 425.293l112.941-135.526 112.941 135.526h-225.882z" />
<glyph unicode="&#xe62d;" glyph-name="business" data-tags="business" d="M196.922 684.307h630.157c65.254 0 118.15-52.896 118.15-118.15v-433.229c0-65.261-52.896-118.157-118.15-118.157h-630.157c-65.254 0-118.15 52.896-118.15 118.157v236.307h708.922c21.754 0 39.386 17.626 39.386 39.379s-17.632 39.386-39.386 39.386h-708.922v118.157c0 65.254 52.896 118.15 118.15 118.15zM708.922 763.078h-393.843v78.771c0 21.747 17.632 39.379 39.386 39.379h315.078c21.747 0 39.379-17.632 39.379-39.379v-78.771zM196.922 763.078c-108.762 0-196.922-88.166-196.922-196.922v-433.229c0-108.762 88.16-196.928 196.922-196.928h630.157c108.762 0 196.922 88.166 196.922 196.928v433.229c0 108.755-88.16 196.922-196.922 196.922h-39.386v39.386c0 108.755-48.781 157.536-157.536 157.536h-236.314c-108.755 0-157.536-48.781-157.536-157.536v-39.386h-39.386z" />
<glyph unicode="&#xe62e;" glyph-name="folder" data-tags="folder" horiz-adv-x="1280" d="M1233.094 854.099h-741.050c-6.048 59.366-55.488 105.901-116.288 105.901h-328.851c-25.901 0-46.906-21.037-46.906-47.085v-929.875c0-26.003 21.005-47.040 46.906-47.040h1186.189c25.901 0 46.906 21.037 46.906 47.040v823.974c0 26.003-21.005 47.085-46.906 47.085v0z" />
<glyph unicode="&#xe62f;" glyph-name="arrow-right" data-tags="arrow-right" horiz-adv-x="1088" d="M1085.555 433.331c0.794 4.704 2.496 9.229 2.445 13.99 0.051 4.154-1.542 8.102-2.125 12.205-0.429 2.816-0.909 5.574-1.651 8.288-1.702 6.758-4.307 12.966-7.814 19.168-2.022 3.501-4.256 6.842-6.701 9.997-2.074 2.579-3.027 5.683-5.421 8.051l-435.974 431.341c-31.846 31.507-83.462 31.507-115.283 0-31.84-31.514-31.84-82.592 0-114.099l297.466-294.31h-729.69c-44.627 0-80.806-35.821-80.806-79.955s36.179-79.955 80.806-79.955h731.712l-297.862-294.733c-31.763-31.405-31.763-82.323 0-113.728 31.738-31.456 83.194-31.456 114.989 0l434.694 430.080c11.75 11.622 17.651 26.093 20.685 41.056 0.211 0.87 0.371 1.734 0.531 2.605v0z" />
<glyph unicode="&#xe630;" glyph-name="arrow-left" data-tags="arrow-left" horiz-adv-x="1088" d="M2.445 433.331c-0.794 4.704-2.496 9.229-2.445 13.99-0.051 4.154 1.542 8.102 2.125 12.205 0.429 2.816 0.909 5.574 1.651 8.288 1.702 6.758 4.307 12.966 7.814 19.168 2.022 3.501 4.256 6.842 6.701 9.997 2.074 2.579 3.027 5.683 5.421 8.051l435.974 431.341c31.846 31.507 83.462 31.507 115.283 0 31.84-31.514 31.84-82.592 0-114.099l-297.466-294.31h729.69c44.627 0 80.806-35.821 80.806-79.955s-36.179-79.955-80.806-79.955h-731.712l297.862-294.733c31.763-31.405 31.763-82.323 0-113.728-31.738-31.456-83.194-31.456-114.989 0l-434.694 430.080c-11.75 11.622-17.651 26.093-20.685 41.056-0.211 0.87-0.371 1.734-0.531 2.605v0z" />
<glyph unicode="&#xe631;" glyph-name="world" data-tags="world" d="M512.019 960c-282.304 0-512.019-229.715-512.019-512.019s229.715-511.981 512.019-511.981c282.304 0 511.981 229.677 511.981 511.981s-229.677 512.019-511.981 512.019zM512.019 25.626c-98.502 0-192.365 33.85-267.782 95.942 3.75 2.336 6.758 4.602 8.608 6.163l9.914 8.307-8.832 26.502 12.806 40.384 1.075 6.419c0 15.398-6.125 33.178-22.381 36.371-1.856 0.742-6.643 8.314-9.504 10.355-8.090 5.939-14.509 14.624-22.374 14.624 0 0-0.038 0-0.077 0-1.446 0-5.568-2.304-8.019-0.672-2.189 1.408-5.082 0.966-8.198 2.522-1.856 0.896-4.973 1.376-4.57 0.742-3.008 4.422-7.046 10.842-10.726 20.192-2.925 8.166-5.53 12.25-19.296 27.686-9.056 10.246-11.206 12.506-19.558 16.41l-3.494 1.594c-3.52 1.741-5.856 3.526-8.122 5.158-3.603 2.598-8.090 5.862-14.586 8.499-5.459 2.227-7.238 3.565-12.512 8.051-1.888 1.709-4.154 3.603-6.829 5.35-5.267 26.758-7.942 54.221-7.942 81.754l0.077 5.235c4.192 10.88 8.051 29.286 6.202 38.637-0.115 2.374 1.37 9.728 2.259 14.106 1.555 7.68 2.893 15.29 2.746 19.002 0.819 3.194 6.458 11.84 9.466 16.48 4.006 6.157 7.424 11.834 8.979 15.661 1.6 3.93 10.355 17.402 15.667 25.498l8.832 13.843c2.298 3.597 7.642 12.173 5.6 21.6 9.984 7.053 22.867 16.218 24.531 17.626 2.048 2.042 19.232 20.826 1.638 53.446-0.557 1.037 6.048 1.894 5.792 2.342 1.478 2.739 10.458 7.232 10.458 13.21v1.408c0 11.578 4.531 20.672 14.701 20.672h6.31c2.266 0 4.525 6.643 6.605 7.021l15.514-3.757 32.102 13.549 3.418 7.13c0.038 0.032 3.411 6.566 10.579 11.654 10.65 7.642 13.875 12.467 18.854 20.704l-15.258 11.43 17.965-8.090c2.118 2.042 6.31 16.077 17.261 27.834 12.73 13.702 20.038 26.541 19.187 26.541h7.942l5.638-3.565c1.709 1.856 8.87 4.902 14.362 12.358 73.152 26.835 153.843 30.138 229.85 14.624-10.022-0.224-19.45-4.525-33.811-11.392-3.488-1.67-6.605-3.859-8.461-4.493-3.27-0.781-8.205-3.117-13.402-5.453-3.155-1.376-9.018-4.122-9.69-4.416-12.947 0-24.122-10.694-33.030-22.342-11.13-20.262-8.422-32.435-4.858-38.451l7.315-12.877h5.267c-6.906 0-13.325-10.099-17.331-13.626l-19.226 23.68-18.112 38.227-31.693-27.354v-14.176l-19.45 6.643-19.674-41.050 28.058-38.669 11.136 9.798v-2.675l17.779 4.525c-0.41-4.486-1.338-8.902 0.147-12.986l-52.070-12.096 4.493-19.379c0.781-3.117 0.998-9.242 1.261-12.915-7.162-28.358-0.71-37.005 1.856-40.307l4.672-5.152c-6.566-6.65-10.912-14.074-13.101-17.709-2.97-3.45-8.346-9.574-9.498-18.63-1.709-2.15-5.491-5.638-8.205-7.462l-3.45-2.112c-12.474-7.648-24.128-15.29-30.029-25.088-7.347-12.358-11.949-23.2-13.728-32.218-2.003-10.054-2.003-17.92-2.003-29.837 0-3.635-0.186-6.758-0.371-9.651-0.378-6.31-0.819-12.838 0.627-21.344 3.046-18.182 28.096-50.88 28.429-51.29 7.834-9.798 17.107-20.781 27.872-27.168 5.536-3.341 12.73-9.274 15.699-11.763 7.162-8.39 23.757-15.622 40.013-9.427 4.563 1.747 9.165 2.598 13.619 3.635 8.205 1.818 17.555 3.827 26.758 9.062 2.112 1.222 4.045 2.298 5.792 3.117 7.085-11.808 21.709-17.67 36.48-12.806l0.301 0.109c0.48-3.046 0.966-5.862 1.446-8.461 0.518-2.598 0.998-4.826 0.966-9.318-0.301-6.458-0.896-18.515 8.941-28.39 1.933-1.926 4.826-4.262 7.942-6.829 1.338-1.037 3.302-2.598 4.826-3.93 0.627-8.134 2.374-21.754 6.605-30.214 2.042-4.006 2.598-7.053 3.302-5.715-3.597-7.162-10.72-26.573-11.43-28.986-4.416-19.859-1.856-27.392-1.114-29.581 3.085-9.504 8.87-18.406 17.67-27.168 1.075-1.075 1.555-2.63 2.592-6.458 1.229-4.416 2.861-10.426 7.021-15.994 1.664-2.342 5.491-12.102 7.418-17.965l2.413-13.21-0.032-36.672 21.747 3.117c0 0 35.661 5.197 42.605 6.944 8.090 2.074 35.482 14.733 45.35 24.563 5.018 5.018 7.424 9.69 9.024 12.806 1.299 2.413 1.446 2.707 2.707 3.789 8.128 6.458 22.899 17.811 22.899 17.811l8.019 6.163-1.747 27.686 13.658 18.406 11.616 11.878c-2.746-6.534-6.195-15.034-7.462-20.038-2.259-9.056-0.736-19.968 6.464-29.101l8.422-5.229h9.242l6.79-2.566c7.053 2.304 12.659 5.83 18.15 11.059 1.67 1.6 3.264 2.304 4.301 3.078 10.4 6.835 20.416 24.314 22.79 33.67l6.573 24.307c1.888 7.571 3.821 22.157 3.821 29.062 0 6.861-1.818 14.47-2.189 15.955l-11.917 47.987-33.254-62.464c-4.858-2.374-8.346-4.563-11.501-6.822 0.032 2.893-0.224 5.229-0.557 6.458-0.781 3.187-2.49 17.888-3.936 31.398 2.374 4.934 5.421 10.688 7.2 13.139 3.117 4.154 4.896 8.269 6.31 11.539 1.709 3.936 2.56 5.824 5.306 8.166 10.208 8.461 17.075 17.888 22.118 24.794l3.974 5.267c5.414 7.162 13.914 18.554 16.736 22.931 4.678 6.944 7.91 19.418 9.389 26.17l6.054 27.43-22.752-3.789c2.746 1.37 5.197 2.675 6.861 3.789 1.338 0.89 3.642 2.189 6.278 3.674 10.387 5.824 18.106 10.317 22.97 15.142l10.17 7.418c8.947 5.939 20.083 13.325 21.491 26.131 1.965-1.562 4.083-3.046 6.496-4.192 1.632-1.043 5.53-5.312 8.723-9.28 2.374-5.53 8.269-19.52 9.498-24.422 0.851-3.302 3.302-9.466 6.016-15.885 2.074-4.858 4.378-9.984 4.858-10.464 0-4.307 1.933-17.146 9.094-25.312-28.282-205.466-205.088-364.314-418.234-364.314v0zM667.526 588.128c1.517-2.080 3.488-4.339 5.376-6.566-5.453 1.517-12.397 3.264-21.043 5.152l-11.872 36.154c2.445 0.070 4.525 0.294 6.342 0.557 2.675-9.094 8.461-19.117 17.555-30.323l3.642-4.973zM517.286 632.294l0.781-0.634c-0.147 0-0.486-0.070-0.595-0.070-1.779 0.333-7.424 2.15-11.84 3.891l-4.269 1.677-4.525-0.416c-1.6-0.186-3.936-0.48-6.534-0.813 0.147 0.224 0.518 0.781 0.634 0.928 1.331 2.003 2.592 3.898 7.718 5.568 9.389 3.155 14.438 7.533 16.179 9.798 2.714 0.851 9.133 2.112 14.291 2.97l7.974-5.274c2.381-2.816 5.715-5.933 10.547-8.979l-30.362-8.646zM567.616 594.656l8.013 1.338c13.434 2.266 22.010 10.989 26.093 18.822l12.621-20.192-1.043-0.115-5.306-4.192c-4.045-3.264-34.221-2.080-44.87 2.266-0.301 1.594-0.819 3.859-1.414 6.458l5.907-4.384z" />
<glyph unicode="&#xe632;" glyph-name="image" data-tags="image" horiz-adv-x="1088" d="M785.779 719.059h-120.89v-120.474h120.89v120.474zM544 417.882l-120.89 180.704-181.331-180.704v-180.704h604.442v120.467l-120.89 180.71-60.442-120.474h-120.89zM967.11 960h-846.221c-66.822 0-120.89-53.939-120.89-120.474v-783.053c0-66.592 54.067-120.474 120.89-120.474h664.89v120.474h-604.448c-33.35 0-60.442 26.97-60.442 60.23v662.592c0 33.235 27.091 60.23 60.442 60.23h725.338c33.35 0 60.442-26.995 60.442-60.23v-542.118h120.89v602.349c0 66.534-54.067 120.474-120.89 120.474v0zM967.11-64l120.89 120.474h-241.779l120.89-120.474z" />
<glyph unicode="&#xe633;" glyph-name="tie" data-tags="tie" horiz-adv-x="576" d="M287.974 866.694c73.6 0 189.139-9.338 188.896-74.515-0.243-55.853-47.002-93.555-75.29-121.485-28.365-27.949-75.853-27.949-113.606-27.949-37.779 0-85.261 0-113.6 27.949-28.314 27.93-75.046 65.632-75.245 121.485-0.288 65.178 115.296 74.515 188.845 74.515v0zM365.299 577.984c9.709 0 17.837-7.226 18.829-16.742l73.958-204.723c5.882-59.232-14.592-118.118-56.166-161.261l-113.946-118.272-109.536 119.981c-38.573 42.278-57.549 98.406-52.538 155.040l66.118 209.005c0.896 9.613 9.024 16.973 18.829 16.973h154.451zM287.974 960c-118.515 0-195.738-20.774-242.957-65.421-29.21-27.565-45.21-64.102-45.018-102.784 0.294-78.272 52.589-167.795 94.125-213.382l-63.245-199.821-2.88-9.184-0.89-9.613c-7.238-81.184 20.518-162.694 76.134-223.603l182.746-200.192 189.376 196.589c60.243 62.464 89.914 147.341 81.395 232.672l-1.094 10.912-3.776 10.413-69.478 192.442c41.382 45.747 93.222 134.816 93.587 212.768 0.147 38.682-15.878 75.219-45.062 102.784-47.245 44.646-124.448 65.421-242.963 65.421v0z" />
<glyph unicode="&#xe634;" glyph-name="socialcpx" data-tags="socialcpx" horiz-adv-x="3264" d="M1358.842 97.126c0-5.222 1.216-8.979 3.642-11.264s5.485-3.424 9.178-3.424c4.134 0 7.392 1.267 9.779 3.808 2.394 2.534 3.59 6.163 3.59 10.88 0 9.792-4.461 14.688-13.37 14.688-8.544 0-12.819-4.896-12.819-14.688zM1358.842 1.062c0-5.222 1.216-8.979 3.642-11.264s5.485-3.43 9.178-3.43c4.134 0 7.392 1.274 9.779 3.814 2.394 2.534 3.59 6.163 3.59 10.88 0 4.851-1.184 8.538-3.533 11.040-2.355 2.502-5.632 3.75-9.837 3.75-4.128 0-7.296-1.248-9.504-3.75s-3.315-6.189-3.315-11.040zM1230.419 108.768l48.019-119.891-6.624-16.973c-5.293-13.926-14.125-20.89-26.515-20.89-4.922 0-9.382 0.435-13.363 1.306v-14.47c5.363-1.229 10.797-1.85 16.301-1.85 9.85 0 18.163 2.81 24.934 8.429 6.771 5.626 12.691 15.142 17.766 28.563l51.174 135.776h-19.341c-16.659-46.131-26.496-73.67-29.498-82.63-3.008-8.96-4.986-15.283-5.92-18.989h-0.87c-1.376 6.893-4.928 18.099-10.65 33.619l-26.080 68h-19.334zM1168.378 110.726c-16.518 0-28.979-5.952-37.376-17.843h-0.87c0.576 7.322 0.87 15.59 0.87 24.806v41.126h-18.035v-169.286h12.928l3.802 15.341h1.306c4.346-5.952 9.722-10.362 16.134-13.222 6.406-2.867 13.491-4.294 21.242-4.294 15.494 0 27.616 5.421 36.346 16.262 8.723 10.842 13.088 26.054 13.088 45.638s-4.326 34.726-12.986 45.421c-8.653 10.701-20.806 16.051-36.448 16.051zM1165.766 95.603c11.373 0 19.776-3.808 25.21-11.424s8.147-19.187 8.147-34.707c0-15.162-2.714-26.778-8.147-34.867s-13.69-12.128-24.774-12.128c-12.314 0-21.261 3.603-26.835 10.822-5.581 7.213-8.365 19.2-8.365 35.955s2.714 28.666 8.147 35.738c5.434 7.072 14.304 10.611 26.618 10.611zM999.853 5.523l2.394-15.994h14.669v169.286h-18.035v-48.525l0.429-8.378 0.762-8.595h-1.414c-8.621 11.75-21.005 17.626-37.158 17.626-15.501 0-27.597-5.44-36.288-16.32s-13.037-26.15-13.037-45.805c0-19.654 4.326-34.81 12.986-45.478 8.653-10.656 20.768-15.987 36.339-15.987 16.589 0 29.050 6.054 37.382 18.17h0.973zM963.782 2.477c-10.797 0-18.976 3.872-24.557 11.642-5.581 7.757-8.365 19.251-8.365 34.483 0 15.014 2.803 26.637 8.422 34.874 5.613 8.23 13.702 12.346 24.282 12.346 12.314 0 21.28-3.61 26.893-10.829s8.422-19.27 8.422-36.173v-3.808c0-14.938-2.778-25.766-8.314-32.474-5.542-6.707-14.47-10.061-26.784-10.061zM844.262-12.646c8.045 0 14.906 0.595 20.595 1.792 5.683 1.197 11.712 3.174 18.086 5.933v16.096c-12.531-5.37-25.203-8.045-38.029-8.045-12.166 0-21.6 3.622-28.301 10.88-6.701 7.245-10.234 17.875-10.592 31.872h82.029v11.424c0 16.102-4.346 29.062-13.037 38.893s-20.499 14.746-35.424 14.746c-15.936 0-28.627-5.658-38.080-16.973s-14.182-26.586-14.182-45.805c0-19.078 5.088-33.984 15.27-44.717 10.176-10.733 24.064-16.096 41.664-16.096zM839.373 95.821c9.421 0 16.666-3.034 21.734-9.082 5.069-6.061 7.603-14.784 7.603-26.17h-62.259c1.018 11.027 4.365 19.654 10.054 25.894 5.683 6.234 13.306 9.357 22.867 9.357zM757.453 110.944c-7.462 0-14.31-2.106-20.538-6.31-6.227-4.211-11.552-10.195-15.974-17.952h-0.864l-2.067 22.086h-14.886v-119.238h18.035v63.968c0 11.674 3.424 21.434 10.272 29.267 6.842 7.834 15.085 11.75 24.717 11.75 3.763 0 8.109-0.544 13.037-1.632l2.502 16.755c-4.205 0.87-8.947 1.306-14.234 1.306zM628.589-12.646c8.038 0 14.906 0.595 20.589 1.792s11.718 3.174 18.093 5.933v16.096c-12.531-5.37-25.21-8.045-38.029-8.045-12.173 0-21.606 3.622-28.307 10.88-6.701 7.245-10.227 17.875-10.592 31.872h82.035v11.424c0 16.102-4.346 29.062-13.037 38.893-8.698 9.83-20.506 14.746-35.424 14.746-15.936 0-28.627-5.658-38.080-16.973s-14.182-26.586-14.182-45.805c0-19.078 5.088-33.984 15.264-44.717s24.070-16.096 41.67-16.096zM623.699 95.821c9.414 0 16.659-3.034 21.728-9.082 5.069-6.061 7.61-14.784 7.61-26.17h-62.259c1.011 11.027 4.365 19.654 10.048 25.894 5.69 6.234 13.312 9.357 22.874 9.357zM492.883-10.47h21.082l45.197 119.238h-19.341c-14.778-40.621-24.288-66.963-28.525-79.040s-6.752-20.038-7.546-23.885h-0.87c-1.018 4.934-4.422 15.667-10.214 32.205l-25.645 70.72h-19.341l45.203-119.238zM435.187 49.254c0 18.931-4.909 33.946-14.72 45.043-9.818 11.098-23.053 16.646-39.712 16.646-17.242 0-30.714-5.427-40.422-16.269s-14.56-25.984-14.56-45.421c0-12.544 2.246-23.494 6.739-32.858 4.486-9.357 10.861-16.531 19.123-21.542 8.256-4.998 17.709-7.501 28.358-7.501 17.235 0 30.746 5.453 40.525 16.371 9.779 10.912 14.669 26.093 14.669 45.53zM344.461 49.254c0 15.373 3.008 26.944 9.024 34.707 6.010 7.757 14.918 11.642 26.726 11.642 11.949 0 20.986-3.936 27.11-11.808 6.118-7.872 9.178-19.379 9.178-34.541 0-15.302-3.059-26.925-9.178-34.867-6.125-7.942-15.091-11.91-26.893-11.91-11.808 0-20.755 3.981-26.842 11.962-6.080 7.981-9.126 19.584-9.126 34.816zM251.456-12.646c15.501 0 27.616 5.421 36.346 16.262s13.094 26.054 13.094 45.638c0 19.514-4.294 34.669-12.877 45.478-8.582 10.803-20.774 16.211-36.563 16.211-7.968 0-15.034-1.453-21.184-4.352-6.163-2.906-11.558-7.616-16.192-14.144h-0.87l-2.496 16.32h-14.669v-172.768h18.035v49.062c0 6.24-0.435 12.845-1.306 19.808h1.306c4.346-5.952 9.722-10.362 16.134-13.222 6.413-2.867 13.491-4.294 21.242-4.294zM248.851 95.603c10.573 0 18.778-3.974 24.608-11.917 5.83-7.936 8.742-19.347 8.742-34.214 0-14.65-2.912-26.15-8.742-34.49s-13.888-12.506-24.179-12.506c-12.314 0-21.261 3.603-26.835 10.822-5.581 7.213-8.365 19.2-8.365 35.955v4.026c0.147 14.726 2.931 25.459 8.365 32.205s14.234 10.118 26.406 10.118zM2915.878-18.080c-15.040 11.725-27.718 32.832-35.642 48.179 15.136 14.931 24.557 35.014 24.557 57.254 0 45.965-39.699 83.226-88.666 83.226s-88.666-37.261-88.666-83.226c0-45.971 39.699-83.238 88.666-83.238 11.264 0 21.939 2.17 31.853 5.76 27.078-21.446 67.898-27.955 67.898-27.955zM3118.618 78.157l45.197 45.606c4.506 4.512 6.925 10.061 6.925 16.294 0 6.246-2.419 11.795-6.925 16.307-4.851 4.333-10.214 6.586-16.448 6.758-6.24 0-8.781-2.253-13.28-6.758l-51.955-51.846v87.219c0 6.413-2.253 11.968-6.406 16.474-4.333 4.512-12.352 6.758-18.413 6.758-6.234 0-8.602-2.426-12.934-7.104-4.499-4.858-6.586-10.234-6.586-16.128v-175.488c0-6.586 2.259-11.962 6.931-16.467 4.499-4.512 6.874-6.765 12.589-6.765 5.888 0 13.734 2.253 18.24 7.104 4.326 4.685 6.579 10.061 6.579 16.128v35.552l51.955-51.501c4.845-4.858 7.392-7.11 13.619-6.765 6.234 0.346 11.603 2.605 16.109 6.765 4.506 4.506 6.925 9.882 6.925 16.128 0 6.24-2.419 11.789-6.925 16.467l-45.197 45.261zM2945.152 208.384c-4.16-4.166-6.413-9.19-7.104-15.085v-138.899c0-8.326 1.555-16.128 4.845-23.405 3.296-7.456 4.966-14.048 10.682-19.597 5.549-5.549 12.128-10.061 19.744-13.35 7.45-3.469 15.418-5.030 24.070-5.030h5.024c6.24 0.864 11.43 3.469 15.411 7.808 3.987 4.154 6.061 9.184 6.061 14.733-0.339 6.24-2.944 11.443-8.134 15.603-5.203 4.166-11.085 6.246-18.010 6.246-5.37 0-6.874 1.562-10.336 4.858-3.469 3.117-5.024 7.11-5.024 11.962v137.683c-0.525 6.592-2.771 11.968-6.931 16.474-4.154 4.339-12.173 6.586-18.061 6.586-6.067-0.346-8.262-2.426-12.237-6.586zM2578.874 208.736c-4.499-4.166-6.579-9.37-6.579-15.61v-114.278c0.173-13.005 2.426-24.794 6.931-35.373 4.499-10.579 10.56-19.597 18.182-27.046 7.616-7.635 16.621-13.357 27.014-17.344 10.387-4.16 21.478-6.067 33.421-6.067 11.085 0 21.299 1.907 31.002 5.894 9.523 3.994 18.355 9.882 26.496 17.517 2.080 1.901 3.462 4.16 4.499 6.931 0.87 2.605 1.216 5.376 1.216 8.154-0.173 2.771-0.87 5.376-1.907 8.147-1.21 2.605-2.944 4.858-5.197 6.938-5.197 4.506-10.566 6.765-16.448 6.765-5.888-0.179-11.085-2.259-15.93-6.419-3.117-3.123-6.931-5.549-11.091-7.104-4.326-1.734-9.35-2.432-15.232-2.432-5.549 0-10.746 0.864-15.418 2.944-4.672 2.086-8.659 4.864-12.122 8.499-3.462 3.642-6.234 7.802-8.141 12.486-2.074 4.678-2.944 9.709-2.944 14.912v38.848h65.984c5.715 0 10.906 2.246 15.411 6.758 4.499 4.506 6.925 9.536 6.925 15.43s-2.074 11.098-6.234 15.61c-4.154 4.333-9.523 6.592-16.102 6.592h-65.984v29.306c-0.518 7.283-2.771 13.523-6.925 18.554-4.16 5.030-9.178 7.622-15.238 7.622-5.894 0-11.085-2.080-15.59-6.234zM2408.992 211.162c-2.598-1.216-4.858-2.778-6.931-4.685-2.080-2.080-3.808-4.333-5.197-6.931-1.382-2.605-1.901-5.203-1.901-7.981v-115.315c0-11.27 2.253-22.022 6.752-32.077 4.506-10.061 10.739-18.899 18.362-26.534 7.616-7.629 16.621-13.523 26.662-18.035 10.048-4.506 20.435-6.586 31.52-6.586s21.818 2.080 31.866 6.413c10.042 4.333 18.707 10.234 26.323 17.862 7.622 7.629 13.51 16.474 18.010 26.528 4.506 10.061 6.752 20.986 6.752 32.429 0 12.141-2.080 22.893-6.054 32.429-3.987 9.536-10.048 18.381-18.016 26.701-6.925 6.419-14.374 11.45-22.342 15.258-7.962 3.821-16.275 6.246-24.589 7.635-8.486 1.216-17.491 1.216-26.15 0-8.659-1.389-16.8-3.987-24.762-7.974v39.533c0 2.944-0.698 5.894-1.734 8.672-1.21 2.771-2.944 5.376-5.024 7.456s-4.499 3.635-7.27 5.030c-2.771 1.21-5.542 1.734-8.314 1.555-2.771 0.179-5.363-0.346-7.962-1.382zM2442.413 90.643c2.080 4.685 4.845 8.838 8.486 12.48 3.462 3.475 7.616 6.419 12.294 8.678 4.506 2.080 9.523 3.296 14.893 3.296 5.024 0 9.869-1.043 14.72-3.123 4.678-2.086 8.832-4.858 12.467-8.326 3.462-3.462 6.406-7.629 8.486-12.314 2.080-4.851 3.117-9.882 3.117-15.085 0-5.376-1.037-10.406-3.117-15.085-2.080-4.858-5.024-8.845-8.486-12.314-3.635-3.469-7.789-6.24-12.467-8.32-4.851-2.086-9.696-3.123-14.72-3.123-5.37 0-10.387 1.037-14.893 3.123-4.678 2.080-8.832 4.851-12.294 8.32-3.642 3.469-6.406 7.456-8.486 12.314-2.080 4.678-3.117 9.709-3.117 15.085 0 4.858 1.037 9.536 3.117 14.394zM2265.6 103.994c3.808 3.296 8.314 5.894 13.504 7.981 5.197 2.080 11.085 3.123 17.843 3.123 6.234 0 12.122-1.043 17.485-3.123 5.197-2.086 9.875-4.685 13.683-7.981h-62.515zM2306.47 37.581l-0.454-0.173c-1.178-0.019-2.355-0.141-3.488-0.333-1.722 0.070-3.629 0.333-5.581 0.333-13.338 0-23.731 7.283-31.347 22.195h91.437c6.579-0.346 12.122 1.734 16.627 6.067 4.499 4.339 6.752 9.363 6.752 15.091 0 10.4-2.426 20.282-6.931 29.651-4.499 9.363-10.733 17.862-18.355 25.139-7.616 7.29-16.627 13.005-26.669 17.344-10.048 4.333-20.608 6.592-31.514 6.592-11.258 0-21.997-2.432-32.045-6.944-10.042-4.506-18.874-10.746-26.496-18.374-7.616-7.635-13.504-16.646-18.010-26.707-4.499-10.054-6.579-20.461-6.579-31.213 0-11.098 2.080-21.677 6.579-32.077 4.506-10.406 10.566-19.424 18.182-27.053 7.622-7.629 16.627-13.702 26.675-18.208 10.042-4.506 20.602-6.24 31.693-5.894h5.581c1.222-0.211 2.483 0 3.77 0h55.245c12.237 0 22.163 9.939 22.163 22.234 0 12.262-9.926 22.157-22.163 22.157h-53.363c-0.646 0.282-1.222 0.384-1.709 0.173zM2077.35-3.693c6.586 2.080 12.646 5.555 18.189 10.061 11.085-9.018 23.891-13.35 38.618-13.35 7.962 0 15.584 1.562 23.206 4.678 7.443 3.13 14.029 7.283 19.565 12.486 5.542 5.203 10.048 11.616 13.51 18.899 3.29 7.29 5.024 15.091 5.024 23.411v86.355c0 5.549-2.253 10.234-6.758 14.394-4.499 4.16-9.696 6.246-15.584 6.246-5.882 0-11.085-2.259-15.411-6.765-4.506-4.512-6.586-9.882-6.586-15.782v-83.923c0-4.512-1.728-8.154-4.845-11.104-3.29-3.117-7.277-4.506-11.949-4.506-4.154 0-7.795 1.21-11.258 3.987-3.462 2.598-5.19 6.419-5.19 11.622v83.923c0 6.24-2.253 11.443-6.579 15.955-4.512 4.333-9.702 6.592-15.763 6.592-5.715 0-10.739-2.086-15.238-6.074-4.506-4.16-6.758-9.018-6.758-14.739v-85.658c-0.346-4.685-2.074-8.499-5.363-11.277-3.469-2.944-7.104-4.333-11.091-4.333-4.499 0-8.48 1.389-11.597 4.506-3.296 2.95-5.024 6.765-5.197 11.45v85.658c-0.518 5.555-2.771 10.234-6.925 14.394-4.16 3.987-9.184 6.074-15.072 6.074-3.117 0-6.054-0.698-8.826-1.734-2.771-1.216-5.024-2.778-7.104-4.858s-3.635-4.512-4.851-7.283c-1.382-2.771-1.901-5.555-1.555-8.493v-84.627c0-7.974 1.555-15.603 4.851-22.886 3.11-7.283 7.443-13.53 12.986-18.899 5.542-5.376 11.949-9.715 19.571-12.832 7.443-3.296 15.411-4.858 23.898-4.858 6.925 0 13.504 1.037 20.083 3.29zM1894.445 784.723c-14.112 64.749-70.336 116.928-143.194 116.883l-1605.549-0.218c-46.278-0.006-83.52-19.034-112.275-54.874-23.347-29.094-33.402-62.918-33.427-99.891l0.134-372.858c0.026-11.866 1.082-23.994 3.699-35.533 11.635-51.174 40.87-88.301 89.645-109.005 18.758-7.962 38.56-9.472 58.733-9.472l1335.699 0.077c3.866 0 7.757-0.243 11.603 0.032 6.592 0.474 10.682-2.029 13.568-8.269 5.824-12.576 12.429-24.794 18.682-37.178l108.192-214.24c1.094-2.163 1.498-4.205 2.726-6.298 0.506 0.102 0.57 0.198 0.57 0.301v11.2l0.954 815.456c0 3.232 0.403 6.458 0.506 9.683 0.256 8.243 1.114 9.075 9.005 9.171 14.182 0.16 28.493 0.346 42.675-0.045 26.739-0.749 44.294-20.384 44.768-47.149 0.064-3.546-1.523-7.098-1.523-10.65v-521.114c10.707-0.39 8.896-0.819 11.731-0.858 38.016-0.557 71.539 12.749 98.822 38.906 31.373 30.099 47.61 67.52 47.75 110.81l0.211 381.574c-0.019 11.2-1.312 22.598-3.706 33.555zM1192.858 792.070c0.070 6.65 1.178 7.552 8.282 7.622 14.502 0.147 29.024 0.41 43.52-0.077 25.696-0.877 45.158-21.21 45.549-47.104 0.134-9.312 0.019-18.63 0.019-29.338-4.806-0.435-8.269-1.005-11.738-1.018l-73.504-0.038c-1.613 0-3.238-0.026-4.832 0.141-6.106 0.627-7.258 1.485-7.309 7.834-0.179 20.653-0.186 41.318 0.013 61.978zM448.851 375.296c-15.744-22.291-38.214-35.258-63.866-42.848-36.685-10.854-74.246-12.038-112.096-9.037-17.094 1.357-33.779 4.723-49.997 10.406-46.131 16.186-73.062 52.134-75.411 100.941-0.096 1.882-0.122 4.16-0.122 6.080 0.006 3.187 0.090 6.925 0.090 10.502h93.21c1.075-3.578 1.882-9.126 2.72-12.883 3.219-14.394 11.040-25.843 24.557-31.731 0.038-0.019 0.070-0.128 0.109-0.147 4.531-1.958 9.222-3.763 14.003-5.222 1.19-0.358 2.394-0.73 3.597-1.050 2.406-0.646 4.832-1.222 7.258-1.69 1.216-0.237 2.432-0.448 3.648-0.634l3.373-0.48c5.626-0.73 11.258-1.165 16.864-1.152 3.366 0.006 6.72 0.166 10.054 0.531 2.227 0.237 4.442 0.557 6.643 0.979 5.504 1.050 10.938 2.688 16.25 5.069 0.787 0.346 1.568 0.723 2.349 1.114 1.562 0.794 3.104 1.658 4.614 2.605 0.749 0.467 1.491 0.96 2.214 1.472 2.918 2.029 5.619 4.346 7.91 6.886 1.094 1.21 2.029 2.483 2.803 3.802 0.589 0.986 1.082 2.003 1.498 3.034 1.088 2.752 1.568 5.632 1.466 8.486-0.23 6.074-3.104 12.038-8.41 16.461-2.893 2.419-6.048 4.762-9.382 6.65-2.003 1.133-4.064 2.099-6.176 2.829l-4.787 1.613c-4.806 1.587-9.645 3.098-14.509 4.506-3.245 0.941-6.496 1.837-9.766 2.682-3.264 0.851-6.541 1.645-9.824 2.387l-6.253 1.427c-12.493 2.854-24.954 5.798-37.274 9.197-4.109 1.126-8.198 2.31-12.269 3.552-4.077 1.242-8.128 2.547-12.16 3.93-10.074 3.45-20.006 7.366-29.728 11.962-3.949 1.862-7.782 3.891-11.482 6.118-7.392 4.448-14.253 9.664-20.454 15.846l-1.843 1.888c-1.83 1.926-3.546 3.91-5.152 5.933-0.8 1.011-1.574 2.035-2.317 3.066-3.718 5.178-6.726 10.637-9.075 16.378-1.408 3.437-2.586 6.982-3.533 10.624-0.941 3.635-1.664 7.373-2.163 11.206-0.339 2.554-0.576 5.152-0.723 7.795-1.472 26.483 4.486 50.074 18.47 70.413 4.659 6.784 10.208 13.203 16.678 19.251 1.075 0.998 2.163 1.978 3.27 2.925 4.41 3.802 9.062 7.187 13.914 10.189 4.845 3.002 9.894 5.626 15.098 7.904 2.605 1.139 5.248 2.202 7.923 3.174 4.019 1.466 8.115 2.746 12.275 3.866 2.771 0.749 5.574 1.427 8.403 2.029 2.726 0.595 5.459 1.133 8.192 1.638 6.822 1.261 13.638 2.253 20.448 2.963 5.44 0.576 10.88 0.966 16.307 1.171l4.077 0.115 4.064 0.051c2.707 0.006 5.421-0.026 8.122-0.115 16.237-0.518 32.371-2.778 48.365-6.957 6.662-1.741 13.293-3.821 19.904-6.246 5.818-2.131 11.283-4.544 16.397-7.226 2.566-1.344 5.037-2.752 7.424-4.224 3.584-2.214 6.982-4.576 10.189-7.085 5.344-4.179 10.176-8.762 14.496-13.728 1.728-1.99 3.379-4.045 4.954-6.15 0.781-1.062 1.549-2.131 2.298-3.213 1.491-2.176 2.906-4.403 4.243-6.701 8.685-14.899 14.099-32.307 16.557-51.936l0.077-0.819c0.038-0.557 0.051-1.114 0.051-1.709l-0.006-0.915c-0.032-1.242-0.090-2.63-0.090-4.282l-2.592-0.32c-2.509-0.326-4.8-0.672-7.085-0.685-16.768-0.077-33.53-0.064-50.298 0.019-14.848 0.077-27.379 5.709-35.61 18.067l-1.478 2.131c-0.998 1.389-2.022 2.714-3.072 3.968-1.056 1.261-2.131 2.451-3.238 3.584-1.101 1.126-2.234 2.202-3.392 3.206l-1.747 1.472c-1.178 0.954-2.381 1.843-3.61 2.682-6.125 4.179-12.832 6.97-19.987 8.666-5.011 1.184-10.24 1.83-15.648 2.054-1.542 0.064-3.104 0.090-4.672 0.083-1.574-0.006-3.162-0.045-4.755-0.109l-2.406-0.128c-6.163-0.378-12.358-1.261-18.464-2.509-3.667-0.742-7.309-1.619-10.893-2.598-9.472-2.573-14.701-10.048-16.736-19.558-0.672-3.142-0.787-6.202-0.192-9.005 0.768-3.61 2.72-6.797 6.195-9.19l2.483-1.683 2.522-1.658c3.386-2.182 6.874-4.23 10.464-5.984 1.798-0.877 3.629-1.677 5.478-2.374 4.013-1.523 8.064-2.925 12.141-4.23 8.147-2.605 16.41-4.826 24.723-6.854 9.702-2.362 19.488-4.461 29.261-6.605 3.987-0.877 7.955-1.798 11.91-2.778 21.741-5.363 42.931-12.41 62.771-22.842 5.414-2.842 10.72-5.939 15.917-9.318 15.827-10.31 26.118-25.152 30.586-43.264 2.637-10.714 4.070-21.261 4.211-31.597 0.314-23.994-6.362-46.88-21.344-68.109zM801.92 408.442c-19.552-40.691-50.458-67.347-94.637-79.021-44.813-11.84-88.096-8.691-130.349 9.709-33.459 14.566-58.362 38.515-71.085 72.774-23.712 63.878-26.029 128.928-2.451 193.235 19.91 54.304 60.154 85.485 117.395 94.208 28.653 4.371 57.126 3.706 85.338-3.546 43.693-11.232 74.63-37.754 94.438-78.003 14.963-30.387 21.408-62.688 22.707-107.174 0.442-28.243-4.166-66.419-21.357-102.182zM1165.67 429.894c-18.982-56.704-58.49-90.656-116.224-103.36-32.544-7.162-65.395-6.79-97.574 2.547-47.654 13.818-79.398 45.53-97.331 91.040-14.061 35.693-17.197 73.21-15.008 111.328 1.267 22.003 4.486 43.597 11.443 64.557 21.306 64.122 72.896 102.643 140.365 105.229 26.291 1.005 52.141-0.877 77.274-9.158 45.894-15.123 75.206-46.925 91.706-91.565 1.562-4.23 2.886-8.55 4.179-12.877 0.442-1.472 0.442-3.085 0.8-5.754-3.75-0.461-7.11-1.216-10.47-1.222-25.459-0.102-50.925 0.070-76.39-0.147-6.125-0.045-10.163 1.67-13.082 7.469-19.706 39.174-75.872 39.398-101.139 19.142-8.563-6.861-14.426-15.507-18.784-25.382-6.464-14.656-9.203-30.189-10.451-46.016-2.010-25.53-1.587-50.95 4.915-75.923 3.462-13.286 9.472-25.216 18.714-35.597 10.643-11.974 23.859-18.438 39.584-19.718 7.36-0.595 14.835-0.704 22.202-0.198 17.024 1.171 32.166 7.085 43.155 20.691 10.835 13.414 24.563 18.822 41.542 18.272 17.069-0.55 34.163-0.083 51.251-0.147 3.469-0.013 6.944-0.39 12.32-0.704-1.235-5.229-1.811-8.966-2.995-12.506zM1289.837 330.221c0-0.211-2.803-0.461-4.134-0.691l-0.48-0.128c-2.048-0.358-3.693-0.659-5.626-0.666l-37.811-0.077-37.741 0.045c-2.246 0-4.71-0.237-6.656 0.608-1.76 0.762-3.693 2.637-4.192 4.403-0.768 2.707-0.442 5.747-0.442 8.653l0.026 336.019c0 4.429 0.442 8.864 0.73 14.349 4.333 0.262 7.187 0.563 10.042 0.576 12.896 0.045 25.805-0.384 38.688 0.083 0.787 0.032 1.581 0.032 2.362 0.019 24.41-0.499 46.112-22.221 45.933-48.614-0.506-74.566-0.486-149.133-0.486-223.693l-0.211-79.411v-11.475zM1620.346 466.022c-0.141-12.179-1.645-24.531-4.186-36.454-10.784-50.541-42.682-81.747-90.982-97.229-15.411-4.941-31.328-7.494-47.494-8.218-16.41-0.73-32.845-2.054-49.235-1.702-25.933 0.55-49.997 8.045-72.205 21.811-21.888 13.574-34.765 33.165-40.198 57.92-5.779 26.291-5.715 52.55 2.336 78.426 5.44 17.498 15.597 31.622 30.938 42.003 26.234 17.747 55.533 26.592 86.515 31.142 19.418 2.848 38.842 5.92 58.022 10.016 7.994 1.702 15.744 5.677 22.938 9.786 8.966 5.126 12.243 13.632 10.963 23.968-1.197 9.722-6.714 16.090-15.546 19.181-23.968 8.39-48.346 10.701-73.082 3.373-8.986-2.656-16.211-7.853-21.28-15.795-2.029-3.168-4.256-5.408-8.41-5.382l-82.208 0.198c-1.216 0.006-2.432 0.563-4.941 1.178 1.318 14.816 5.613 27.866 12.717 39.904 12.851 21.792 31.008 37.702 54.214 47.808 23.482 10.221 48.333 13.747 73.6 13.76 23.507 0.019 47.168-0.576 70.054-6.771 12.371-3.347 24.896-7.181 36.294-12.909 32.749-16.467 50.598-43.661 51.264-80.442 0.806-45.178 0.422-90.387-0.090-135.571zM685.043 612.768c-32.346 17.395-75.981 1.446-91.706-33.274-2.381-5.254-4.243-10.803-5.786-16.365-7.59-27.283-6.49-54.976-2.534-82.554 1.773-12.358 5.024-24.627 8.813-36.544 7.078-22.266 23.309-35.194 45.53-40.326 18.598-4.282 36.685-2.707 52.326 9.626 12.659 9.978 21.888 22.598 27.174 38.010 6.989 20.397 8.685 41.542 9.331 60.218-0.186 21.44-1.594 40.090-8 57.907-6.637 18.458-17.574 33.856-35.149 43.302zM1522.906 507.488c-21.901-8.71-44.832-13.645-67.693-18.982-10.554-2.464-20.864-6.362-30.918-10.509-12.512-5.165-18.029-16.006-20.070-28.704-0.806-5.030-0.858-10.298-0.448-15.392 1.606-20.186 14.33-33.261 34.547-34.989 8.608-0.736 17.453-0.915 25.99 0.186 28.749 3.718 49.958 18.227 60.211 46.074 7.52 20.429 4.928 41.811 4.819 63.629-2.81-0.55-4.742-0.634-6.438-1.312zM2764.397 699.251c-8.166 27.571-24.358 49.658-49.184 64.762-20.288 12.339-42.746 18.701-66.15 19.078-59.283 0.947-118.586 0.64-177.882 0.909-25.83 0.122-45.69-22.688-45.619-47.706l0.179-396.928c0.006-3.11 0.531-6.221 0.742-9.056 10.848-2.234 80.666-1.882 91.373 0.576v52.672c0 18.074-0.269 36.147-0.051 54.214 0.211 17.626-1.018 35.296 0.774 53.683 4.813 0.25 8.877 0.614 12.966 0.666 41.555 0.531 83.213-0.691 124.634 1.933 56.051 3.546 93.651 32.64 109.178 86.829 11.283 39.392 10.669 79.136-0.96 118.368zM2680.147 618.208c-5.184-24.896-21.798-40.064-47.795-43.827-7.949-1.152-16.032-1.798-24.064-1.869-26.118-0.237-52.237-0.141-78.355-0.051-3.731 0.013-7.45 0.698-11.77 1.126-0.192 4.077-0.48 7.245-0.48 10.419l-0.019 111.386c0 1.933 0.038 3.872 0.115 5.805 0.147 3.475 1.99 5.299 5.446 5.459 1.933 0.083 3.866 0.141 5.798 0.141 29.67 0 59.334 0.205 88.998-0.179 7.635-0.096 15.373-1.53 22.854-3.27 20.474-4.762 32.883-17.958 38.221-38.131 4.134-15.597 4.314-31.341 1.050-47.008zM2895.846 540.589c-1.114 1.69-2.95 2.906-5.197 5.050l-132.096-216.134c4.531-0.301 7.034-0.602 9.536-0.608 29.011-0.026 58.035 0.198 87.046-0.16 7.104-0.090 11.091 2.56 14.483 8.55 11.264 19.942 22.97 39.629 34.534 59.405 12.051 20.602 24.070 41.235 36.25 61.766 2.669 4.499 3.853 8.403 0.563 13.344-15.174 22.842-30.042 45.882-45.12 68.787zM3025.702 548.614c-15.245-24.326-30.349-48.736-45.843-72.896-3.277-5.12-1.843-8.794 0.806-13.222 25.184-42.054 50.368-84.122 75.245-126.362 3.232-5.478 6.906-7.43 13.114-7.366 29.005 0.269 58.016 0.096 87.027 0.141 2.438 0.006 4.883 0.384 8.883 0.723l-136.896 222.56-2.336-3.578zM3262.458 960l-177.926-201.146c-19.648-22.24-39.187-44.582-58.944-66.733-19.834-22.221-39.072-44.998-60.358-67.654-2.739 4.365-4.666 7.245-6.406 10.234l-81.741 140.55c-3.098 5.344-6.253 9.024-13.357 8.947-29.978-0.339-59.962-0.109-89.946-0.186-1.978-0.013-3.955-0.896-7.334-1.702l192.73-296.134 304.826 472.646-1.542 1.178zM2290.451 459.981c-11.93-30.099-33.907-48.512-65.094-56.576-15.168-3.923-30.605-4.659-46.067-3.558-30.054 2.125-56.467 12.557-76.55 36.102-13.408 15.718-22.438 33.734-28.083 53.587-8.877 31.226-9.357 63.123-7.053 95.091 1.536 21.286 5.946 42.125 14.502 61.901 14.246 32.973 38.662 54.419 73.254 63.514 24.026 6.317 48.378 6.342 72.774 0.954 22.829-5.050 41.101-16.384 53.37-36.666 2.835-4.685 5.715-9.363 8.39-14.144 8.442-15.066 21.178-23.13 38.47-23.405 17.088-0.269 34.17-0.25 51.258-0.237 2.464 0.006 4.922 0.71 8.614 1.28-1.414 8.544-2.464 16.454-4.064 24.25-12.704 61.901-48.589 103.955-108.781 123.264-56.256 18.048-113.178 16.698-169.299-1.069-40.755-12.909-72.774-38.182-95.77-74.464-13.619-21.491-22.048-45.101-27.597-69.83-8.486-37.818-9.472-76.166-7.251-114.605 1.651-28.742 6.477-57.062 16.826-84.128 22.323-58.394 62.522-97.952 123.379-114.208 50.605-13.517 101.491-12.307 151.738 2.477 25.958 7.635 49.427 20.429 69.158 39.315 25.536 24.461 40.48 54.381 47.514 88.749 1.715 8.384 2.714 18.79 4.173 25.939h-89.139c-2.95-7.149-5.594-15.776-8.672-23.533z" />
<glyph unicode="&#xe635;" glyph-name="cancel-circle" data-tags="cancel-circle, close, remove, delete" d="M512 960c-282.77 0-512-229.23-512-512s229.23-512 512-512 512 229.23 512 512-229.23 512-512 512zM512 32c-229.75 0-416 186.25-416 416s186.25 416 416 416 416-186.25 416-416-186.25-416-416-416zM672 704l-160-160-160 160-96-96 160-160-160-160 96-96 160 160 160-160 96 96-160 160 160 160z" />
<glyph unicode="&#xe636;" glyph-name="office" data-tags="office" d="M0-64h512v1024h-512v-1024zM320 832h128v-128h-128v128zM320 576h128v-128h-128v128zM320 320h128v-128h-128v128zM64 832h128v-128h-128v128zM64 576h128v-128h-128v128zM64 320h128v-128h-128v128zM576 640h448v-64h-448v64zM576-64h128v256h192v-256h128v576h-448v-576z" />
<glyph unicode="&#xe637;" glyph-name="screen" data-tags="screen" horiz-adv-x="1152" d="M1036.8 960h-921.6c-63.36 0-115.2-52.363-115.2-116.363v-640c0-64 50.825-126.64 112.975-139.184l251.82-50.871c0 0-216.742-77.583-76.795-77.583h576c139.975 0-76.795 77.583-76.795 77.583l251.842 50.871c62.129 12.544 112.954 75.184 112.954 139.184v640c0 64-51.84 116.363-115.2 116.363v0zM1045.8 210.885h-939.6v641.997h939.6v-641.997z" />
<glyph unicode="&#xe638;" glyph-name="star" data-tags="star" d="M805.886-64c-5.807 0-11.631 1.453-16.968 4.39l-276.919 152.518-276.919-152.518c-12.288-6.765-27.178-5.638-38.406 2.912-11.234 8.544-16.86 23.034-14.511 37.37l52.88 323.040-224.027 228.774c-9.945 10.15-13.523 25.338-9.234 39.168 4.295 13.83 15.703 23.91 29.443 26.003l309.609 47.13 138.463 293.914c6.138 13.043 18.817 21.299 32.702 21.299s26.564-8.256 32.708-21.299l138.457-293.914 309.603-47.13c13.74-2.093 25.154-12.166 29.443-26.003 4.295-13.83 0.717-29.018-9.228-39.168l-224.033-228.781 52.886-323.040c2.343-14.33-3.277-28.826-14.511-37.37-6.349-4.838-13.878-7.296-21.438-7.296v0zM114.85 533.165l184.844-188.755c8.596-8.781 12.523-21.427 10.487-33.824l-43.634-266.528 228.478 125.837c10.625 5.856 23.323 5.856 33.943 0l228.478-125.837-43.634 266.528c-2.030 12.397 1.891 25.043 10.487 33.824l184.844 188.755-255.445 38.886c-11.878 1.811-22.148 9.626-27.461 20.902l-114.236 242.502-114.236-242.502c-5.313-11.277-15.589-19.091-27.467-20.902l-255.445-38.886z" />
<glyph unicode="&#xe639;" glyph-name="allconnections" data-tags="allconnections" d="M801.954 403.2l197.255 195.2c30.181 29.867 29.103 81.067-1.078 112-30.181 29.867-81.92 32-113.179 1.067l-197.255-194.133-105.634 104.533 194.021 192c30.181 29.867 24.792 85.333-5.389 116.267-30.181 29.867-86.232 36.267-117.491 5.333l-194.021-192-79.764 78.933-127.192-132.267c-118.568-116.267-139.048-289.067-30.181-425.6l-196.177-193.067c-30.181-29.867-33.415-76.8-3.234-107.733s77.608-27.733 108.867 3.2l196.177 194.133c130.425-97.067 305.044-80 421.457 35.2l131.503 130.133-78.686 76.8z" />
<glyph unicode="&#xe63a;" glyph-name="videos" data-tags="videos" d="M853.333 960h-682.667c-93.867 0-170.667-76.8-170.667-170.667v-682.667c0-93.867 76.8-170.667 170.667-170.667h682.667c93.867 0 170.667 76.8 170.667 170.667v682.667c0 93.867-76.8 170.667-170.667 170.667v0zM910.222 106.667c0-31.289-25.6-56.889-56.889-56.889h-682.667c-31.289 0-56.889 25.6-56.889 56.889v682.667c0 31.289 25.6 56.889 56.889 56.889h682.667c31.289 0 56.889-25.6 56.889-56.889v-682.667zM625.778 541.867c0 42.667-31.289 76.8-73.956 76.8h-250.311c-39.822 0-73.956-34.133-73.956-76.8v-184.889c0-42.667 34.133-76.8 76.8-76.8h250.311c42.667 0 73.956 36.978 73.956 76.8v25.6l170.667-105.244v341.333l-170.667-96.711v19.911h-2.844z" />
<glyph unicode="&#xe63b;" glyph-name="perconnections" data-tags="perconnections" horiz-adv-x="1056" d="M976.841-64h-896.647c-35.203 0-64.194 28.991-64.194 64.194v64.194h6.212c25.885 153.238 141.848 274.378 290.944 309.581-25.885 40.38-41.416 88.008-41.416 138.742v191.547c0 140.813 114.928 255.741 256.777 255.741s255.741-114.928 255.741-255.741v-192.582c0-51.769-15.531-99.397-41.416-138.742 149.096-35.203 265.060-156.344 290.944-309.581h6.212v-64.194c0-35.203-27.956-63.159-63.159-63.159v0zM655.871 704.259c0 70.406-56.946 128.388-128.388 128.388-70.406 0-128.388-56.946-128.388-128.388v-192.582c0-70.406 56.946-128.388 128.388-128.388 70.406 0 128.388 56.946 128.388 128.388v192.582zM655.871 255.935h-255.741c-119.070 0-218.467-81.796-247.458-192.582h750.657c-28.991 110.787-127.353 192.582-247.458 192.582v0z" />
<glyph unicode="&#xe63c;" glyph-name="profconnections" data-tags="profconnections" d="M500.48 860.672c68.608 0 175.104-9.216 175.104-73.728 0-55.296-44.032-92.16-69.632-119.808-26.624-27.648-70.656-27.648-105.472-27.648s-78.848 0-105.472 27.648c-26.624 27.648-69.632 64.512-69.632 119.808 0 64.512 106.496 73.728 175.104 73.728v0zM572.16 576c9.216 0 16.384-7.168 17.408-16.384l68.608-201.728c5.12-58.368-13.312-116.736-52.224-158.72l-105.472-116.736-101.376 118.784c-35.84 41.984-53.248 97.28-49.152 152.576l61.44 205.824c1.024 9.216 8.192 16.384 17.408 16.384h143.36zM500.48 952.832c-109.568 0-181.248-20.48-225.28-64.512-26.624-27.648-41.984-63.488-41.984-101.376 0-76.8 49.152-165.888 87.040-210.944l-58.368-196.608-3.072-9.216-1.024-9.216c-7.168-79.872 19.456-160.768 70.656-220.16l101.376-118.784 67.584-78.848 69.632 76.8 107.52 116.736c56.32 61.44 83.968 145.408 75.776 229.376l-1.024 11.264-3.072 10.24-64.512 189.44c38.912 45.056 87.040 133.12 87.040 209.92 0 37.888-14.336 73.728-41.984 101.376-45.056 44.032-116.736 64.512-226.304 64.512v0z" />
<glyph unicode="&#xe63d;" glyph-name="public" data-tags="public" d="M514.338 960c-285.224 0-514.338-229.114-514.338-509.662s229.114-514.338 514.338-514.338c285.224 0 509.662 229.114 509.662 514.338s-229.114 509.662-509.662 509.662v0zM514.338 1.461c-60.785 0-121.571 14.027-177.68 37.406l233.79 261.845c4.676 4.676 9.352 14.027 9.352 23.379v98.192c0 18.703-14.027 32.731-32.731 32.731-112.219 0-233.79 116.895-233.79 116.895l-23.379 4.676h-126.247c-18.703 0-32.731-14.027-32.731-32.731v-191.708c0-14.027 4.676-23.379 18.703-28.055l112.219-56.11v-187.032c-116.895 79.489-191.708 215.087-191.708 369.388 0 70.137 14.027 135.598 42.082 191.708h116.895c9.352 0 18.703 4.676 23.379 9.352l121.571 126.247c4.676 4.676 9.352 14.027 9.352 23.379v74.813c42.082 14.027 84.164 18.703 130.922 18.703 70.137 0 135.598-14.027 196.384-46.758-4.676-4.676-9.352-9.352-14.027-9.352-37.406-37.406-56.11-84.164-56.11-135.598s18.703-98.192 56.11-135.598c37.406-37.406 84.164-56.11 135.598-56.11h9.352c14.027-51.434 37.406-187.032-9.352-374.064v-4.676c-79.489-79.489-191.708-130.922-317.954-130.922v0z" />
<glyph unicode="&#xe63e;" glyph-name="pages" data-tags="pages" d="M918.069 707.678h-239.326v86.314c0 58.851-47.080 102.008-105.931 102.008h-470.805c-58.851 0-102.008-47.080-102.008-102.008v-694.437c0-58.851 43.157-105.931 102.008-105.931h819.985c58.851 0 102.008 47.080 102.008 105.931v498.268c-3.923 58.851-47.080 109.854-105.931 109.854v0zM584.582 95.632c0-3.923-3.923-7.847-7.847-7.847h-470.805c-3.923 0-7.847 3.923-7.847 7.847v698.36c0 15.693 7.847 23.54 19.617 23.54h431.571c39.234 0 35.31-11.77 35.31-23.54v-698.36zM921.992 99.556c0-3.923 0-7.847-3.923-7.847h-239.326v517.885h239.326c3.923 0 3.923-7.847 3.923-11.77v-498.268zM156.935 621.364h117.701v117.701h-117.701v-117.701zM392.337 621.364h117.701v117.701h-117.701v-117.701zM156.935 385.962h117.701v117.701h-117.701v-117.701zM392.337 385.962h117.701v117.701h-117.701v-117.701zM745.441 385.962h117.701v117.701h-117.701v-117.701zM745.441 150.559h117.701v117.701h-117.701v-117.701zM156.935 150.559h117.701v117.701h-117.701v-117.701zM392.337 150.559h117.701v117.701h-117.701v-117.701z" />
<glyph unicode="&#xe63f;" glyph-name="panel" data-tags="panel" horiz-adv-x="1057" d="M484.991 834.283c-24.871 62.178-87.050 102.594-155.446 102.594s-130.575-40.416-155.446-102.594h-174.099v-124.357h170.991c24.871-65.287 83.941-108.812 158.555-108.812 71.505 0 133.683 46.634 158.555 108.812h568.932v124.357h-572.041zM329.545 694.382c-40.416 0-74.614 34.198-74.614 74.614s34.198 74.614 74.614 74.614c40.416 0 74.614-34.198 74.614-74.614s-34.198-74.614-74.614-74.614v0zM889.151 492.302c-24.871 62.178-87.050 102.594-155.446 102.594s-130.575-43.525-155.446-102.594h-578.259v-124.357h575.15c24.871-65.287 83.941-108.812 158.555-108.812 71.505 0 133.683 46.634 158.555 108.812h164.773v124.357h-167.882zM733.705 352.401c-40.416 0-74.614 34.198-74.614 74.614s34.198 74.614 74.614 74.614c40.416 0 74.614-34.198 74.614-74.614s-34.198-74.614-74.614-74.614v0zM484.991 181.41c-24.871 62.178-87.050 102.594-155.446 102.594s-130.575-40.416-155.446-102.594h-174.099v-124.357h170.991c24.871-65.287 83.941-108.812 158.555-108.812 71.505 0 133.683 46.634 158.555 108.812h568.932v124.357h-572.041zM329.545 41.509c-40.416 0-74.614 34.198-74.614 74.614s34.198 74.614 74.614 74.614c40.416 0 74.614-34.198 74.614-74.614s-34.198-74.614-74.614-74.614v0z" />
<glyph unicode="&#xe640;" glyph-name="dropdown" data-tags="dropdown" d="M497.778 732.444c62.578 0 113.778 51.2 113.778 113.778s-51.2 113.778-113.778 113.778c-62.578 0-113.778-51.2-113.778-113.778s51.2-113.778 113.778-113.778v0zM497.778 561.778c-62.578 0-113.778-51.2-113.778-113.778s51.2-113.778 113.778-113.778c62.578 0 113.778 51.2 113.778 113.778s-51.2 113.778-113.778 113.778v0zM497.778 163.556c-62.578 0-113.778-51.2-113.778-113.778s51.2-113.778 113.778-113.778c62.578 0 113.778 51.2 113.778 113.778s-51.2 113.778-113.778 113.778v0z" />
<glyph unicode="&#xe641;" glyph-name="connect2" data-tags="connect2" horiz-adv-x="1130" d="M753.287 203.126v50.219c68.155 39.458 125.548 136.309 125.548 233.16 0 154.245 0 283.38-190.115 283.38s-186.528-125.548-186.528-279.792c0-96.851 57.393-193.702 125.548-233.16v-50.219c-211.638-21.522-376.644-125.548-376.644-251.096h878.835c0 125.548-165.006 229.573-376.644 247.509v0zM319.25 181.603c53.806 35.871 121.961 60.98 197.29 78.916-14.348 17.935-28.697 35.871-39.458 57.393-28.697 53.806-46.632 111.2-46.632 172.18 0 86.090 0 165.006 28.697 229.573s82.503 104.025 157.832 118.374c-14.348 71.742-60.98 121.961-175.767 121.961-190.115 0-190.115-125.548-190.115-283.38 0-96.851 57.393-193.702 125.548-233.16v-50.219c-211.638-17.935-376.644-121.961-376.644-247.509h272.618c14.348 10.761 32.284 21.522 46.632 35.871v0z" />
<glyph unicode="&#xe642;" glyph-name="delete" data-tags="delete" d="M1024 136.037c0-23.814-9.481-42.865-23.704-57.153l-118.519-119.070c-14.222-14.288-33.185-23.814-56.889-23.814s-42.667 9.526-56.889 23.814l-256 252.428-251.259-252.428c-14.222-14.288-33.185-23.814-56.889-23.814s-42.667 9.526-56.889 23.814l-118.519 119.070c-14.222 14.288-23.704 33.34-23.704 57.153s9.481 42.865 23.704 57.153l251.259 257.191-251.259 252.428c-18.963 14.288-28.444 33.34-28.444 57.153s9.481 42.865 23.704 57.153l118.519 119.070c18.963 19.051 37.926 23.814 56.889 23.814 23.704 0 42.667-9.526 56.889-23.814l256-252.428 251.259 252.428c14.222 14.288 33.185 23.814 56.889 23.814s42.667-9.526 56.889-23.814l118.519-119.070c14.222-14.288 23.704-33.34 23.704-57.153s-9.481-42.865-23.704-57.153l-251.259-252.428 251.259-252.428c18.963-19.051 28.444-38.102 28.444-61.916v0z" />
<glyph unicode="&#xe643;" glyph-name="edit" data-tags="edit" d="M250.882 17.825l62.845 62.845-158.96 158.96-62.845-62.845v-73.935h85.025v-85.025h73.935zM602.074 646.273c0 11.090-3.697 14.787-14.787 14.787-3.697 0-7.394 0-11.090-3.697l-365.978-365.978c-3.697-3.697-3.697-7.394-3.697-11.090 0-11.090 3.697-14.787 14.787-14.787 3.697 0 7.394 0 11.090 3.697l365.978 365.978c3.697 3.697 3.697 7.394 3.697 11.090v0zM565.106 775.659l280.953-280.953-561.906-561.906h-280.953v280.953l561.906 561.906zM1027.2 709.118c0-22.181-7.394-44.361-25.877-59.148l-110.903-110.903-280.953 280.953 110.903 110.903c14.787 18.484 36.968 25.877 59.148 25.877s44.361-7.394 62.845-25.877l158.96-158.96c18.484-18.484 25.877-36.968 25.877-62.845v0z" />
<glyph unicode="&#xe644;" glyph-name="check2" data-tags="check2" d="M982.092 771.836l-557.179-784.705c-38.783-54.296-113.763-67.223-169.351-29.733-23.27 16.806-40.076 40.076-46.539 64.638l-165.473 349.045c-28.441 59.467-2.586 130.569 58.174 159.009s133.154 2.586 161.595-58.174l84.029-175.815 435.66 612.768c38.783 54.296 113.763 67.223 169.351 29.733 55.589-38.783 68.516-112.47 29.733-166.766v0z" />
<glyph unicode="&#xe645;" glyph-name="unfollow" data-tags="unfollow" d="M959.605 669.225l-121.698-124.646 10.431-20.774c3.477-10.387 13.908-13.85 20.862-13.85h125.175c6.954 0 6.954 0 10.431 6.925 3.477 3.462 3.477 6.925 3.477 13.85v3.462c-13.908 72.71-27.817 93.484-48.679 135.033v0zM69.472 548.042c0-10.387 0-20.774 6.954-27.699s13.908-10.387 24.34-10.387h246.873l66.065 65.785c-681.508 384.325 0 3.462-3.477 3.462l-66.065 62.323c-10.431 13.85-10.431 31.161 3.477 41.549 55.633 45.011 121.698 65.785 194.716 65.785 13.908 0 27.817 0 41.725-3.462l132.129 131.571c-55.633 20.774-111.267 31.161-173.854 31.161s-121.698-10.387-177.331-34.624c-52.156-17.312-93.881-45.011-135.606-79.635-10.431-10.387-27.817-10.387-38.248 0l-62.587 65.785c-6.954 6.925-17.385 10.387-27.817 10.387s-20.862-6.925-27.817-17.312l-10.431-31.161 6.954-273.528zM79.904 336.837c-3.477-3.462-6.954-6.925-6.954-10.387v-3.462l20.862-69.248 90.404 83.097h-86.927c-3.477 0-10.431 3.462-17.385 0v0zM987.421 336.837h-281.643c-10.431 0-20.862 3.462-27.817-6.925-6.954-6.925-10.431-13.85-10.431-24.237s3.477-17.312 10.431-27.699l66.065-62.323c13.908-13.85 10.431-31.161-3.477-41.549-24.34-17.312-48.679-31.161-76.496-41.549-38.248-13.85-76.496-20.774-118.221-20.774s-83.45 6.925-121.698 24.237l-118.221-117.721c73.019-41.549 152.992-65.785 243.396-65.785 62.587 0 121.698 10.387 177.331 34.624 48.679 20.774 93.881 45.011 132.129 79.635 10.431 10.387 27.817 10.387 38.248 0l62.587-62.323c6.954-6.925 17.385-10.387 27.817-10.387s10.431 3.462 20.862 10.387c6.954 6.925 3.477 17.312 3.477 27.699v280.453c0 10.387 3.477 13.85-3.477 20.774-10.431 6.925-10.431 3.462-20.862 3.462v0zM1001.33 935.829c-31.294 31.161-83.45 31.161-114.744 0l-862.316-862.134c-31.294-31.161-31.294-83.097 0-114.259 17.385-17.312 34.771-24.237 55.633-24.237s41.725 6.925 55.633 24.237l865.793 862.134c31.294 31.161 31.294 83.097 0 114.259v0z" />
<glyph unicode="&#xe646;" glyph-name="topnews" data-tags="topnews" d="M141.785 241.231h267.815c11.815 0 23.631 11.815 23.631 23.631v385.969c0 11.815-11.815 23.631-23.631 23.631h-267.815c-11.815 0-23.631-11.815-23.631-23.631v-385.969c0-11.815 11.815-23.631 23.631-23.631v0zM535.631 359.385h189.046c11.815 0 23.631 11.815 23.631 23.631v31.508c0 11.815-11.815 23.631-23.631 23.631h-189.046c-11.815 0-23.631-11.815-23.631-23.631v-31.508c0-11.815 11.815-23.631 23.631-23.631v0zM535.631 241.231h189.046c11.815 0 23.631 11.815 23.631 23.631v31.508c0 11.815-11.815 23.631-23.631 23.631h-189.046c-11.815 0-23.631-11.815-23.631-23.631v-31.508c0-11.815 11.815-23.631 23.631-23.631v0zM1000.369 713.846h-70.892c-11.815 0-23.631 11.815-23.631 23.631v70.892c0 11.815-11.815 23.631-23.631 23.631h-858.585c-11.815 0-23.631-11.815-23.631-23.631v-638.031c0-47.262 39.385-86.646 86.646-86.646h779.815c78.769 0 157.538 118.154 157.538 157.538v448.985c0 11.815-11.815 23.631-23.631 23.631v0zM827.077 162.462h-724.677c-11.815 0-23.631 11.815-23.631 23.631v543.508c0 11.815 11.815 23.631 23.631 23.631h724.677v-590.769zM535.631 477.538h189.046c11.815 0 23.631 11.815 23.631 23.631v31.508c0 11.815-11.815 23.631-23.631 23.631h-189.046c-11.815 0-23.631-11.815-23.631-23.631v-31.508c0-11.815 11.815-23.631 23.631-23.631v0zM535.631 595.692h189.046c11.815 0 23.631 11.815 23.631 23.631v31.508c0 11.815-11.815 23.631-23.631 23.631h-189.046c-11.815 0-23.631-11.815-23.631-23.631v-31.508c0-11.815 11.815-23.631 23.631-23.631v0z" />
<glyph unicode="&#xe647;" glyph-name="hide" data-tags="hide" d="M614.4 800h375.467v-136.533h-375.467v136.533zM870.4 615.68h-293.547v126.293c-20.48 3.413-40.96 3.413-64.853 3.413-221.867 0-416.427-129.707-512-320.853 95.573-191.147 290.133-320.853 512-320.853s416.427 129.707 512 320.853c-37.547 75.093-88.747 139.947-153.6 191.147v0zM416.427 615.68c54.613 0 95.573-44.373 95.573-95.573s-44.373-95.573-95.573-95.573c-51.2 0-95.573 44.373-95.573 95.573s40.96 95.573 95.573 95.573v0zM764.587 274.347c-75.093-47.787-163.84-75.093-252.587-75.093s-177.493 23.893-252.587 75.093c-61.44 37.547-112.64 88.747-150.187 150.187 37.547 61.44 88.747 112.64 150.187 150.187l10.24 6.827c-10.24-27.307-17.067-58.027-17.067-88.747 0-139.947 116.053-256 256-256s256 116.053 256 256c0 30.72-6.827 61.44-17.067 88.747l10.24-6.827c61.44-37.547 112.64-88.747 150.187-150.187-30.72-61.44-81.92-112.64-143.36-150.187v0z" />
<glyph unicode="&#xe648;" glyph-name="message-o" data-tags="message-o" d="M515.394 285.782v0zM514.194 285.782v0zM999.577 840.391c-17.206 17.206-36.414 23.609-60.423 23.609h-853.121c-24.009 0-43.616-6.803-60.823-23.609-17.206-17.206-25.209-35.613-25.209-59.622v-633.839c0-24.009 8.003-42.416 25.209-59.622s36.814-24.009 60.823-24.009h852.721c24.009 0 43.616 6.803 60.423 24.009 17.206 17.206 24.809 35.613 24.809 59.622v633.839c0.4 24.009-7.603 42.416-24.409 59.622v0zM964.363 146.93c0-6.803-2.401-12.005-7.603-16.806-4.802-5.202-10.804-6.402-18.007-6.402h-852.721c-6.803 0-13.205 1.601-18.007 6.402-4.802 5.202-7.603 10.004-7.603 16.806v465.375l12.405-13.205c12.005-13.605 25.61-26.41 39.215-37.614 103.239-79.63 186.87-145.655 248.093-196.874 19.607-16.406 36.014-29.611 48.018-38.815 12.005-8.803 28.011-18.007 48.418-27.21 18.407-8.403 35.613-12.405 51.619-12.805v-2.001h2.401c0.4 0 0.4 0.8 1.2 1.2 0.4 0 0.4 0.8 0.4 0.8 20.008 0.4 35.613 4.402 54.821 12.805 20.808 9.203 37.614 18.407 49.219 27.21 12.405 9.203 28.411 22.008 48.018 38.815 61.223 51.219 144.454 117.244 248.093 196.874 14.005 11.204 27.61 24.009 39.615 37.614l12.005 13.205v-465.375h0.4zM875.93 610.705c-74.028-58.422-152.858-120.846-233.688-184.87-2.401-2.001-8.803-7.603-20.408-17.206-11.204-9.604-20.408-17.206-27.21-22.008-6.803-5.202-15.606-11.204-26.41-18.807-11.204-7.603-21.208-16.406-30.812-20.408-9.203-3.601-17.607-8.403-25.61-9.203-8.003 0.8-16.806 5.602-25.61 9.203-9.203 3.601-19.607 12.805-30.812 20.408-10.804 7.203-19.607 13.605-26.41 18.807s-15.606 12.405-27.21 22.008c-11.204 9.604-18.007 15.206-20.408 17.206-80.83 64.024-159.26 126.448-233.688 184.87-58.422 46.017-88.033 104.439-88.033 171.265 0 6.803 2.401 14.405 7.603 19.607 5.202 4.802 11.204 10.404 18.007 10.404h852.721c6.803 0 12.805-5.202 18.007-10.404s7.603-12.405 7.603-19.607c0.8-66.825-28.811-125.247-87.633-171.265v0z" />
<glyph unicode="&#xe649;" glyph-name="message" data-tags="message" d="M1024 604.299v-453.777c0-25.21-8.803-46.818-26.81-64.425-18.007-18.007-39.615-26.81-64.425-26.81h-841.529c-25.21 0-46.818 8.803-64.425 26.81-18.007 18.007-26.81 39.615-26.81 64.425v453.777c16.807-18.807 36.014-35.214 57.623-49.619 138.054-93.637 232.491-159.262 284.111-197.277 21.608-16.006 39.215-28.411 52.821-37.215s31.612-18.007 54.021-27.611c22.409-9.604 43.617-14.005 62.825-14.005h1.2c19.608 0 40.416 4.802 62.825 14.005s40.416 18.407 54.021 27.611c13.605 8.803 31.212 21.608 52.821 37.215 64.825 46.818 159.662 112.444 284.511 197.277 21.608 14.806 40.816 31.212 57.222 49.619v0zM1024 772.364c0-30.012-9.204-58.823-28.011-86.434s-42.016-50.82-69.627-70.428c-143.256-99.239-232.491-161.263-267.304-185.673-4.002-2.801-12.005-8.403-24.41-17.607-12.405-8.803-22.809-16.406-30.812-21.608-8.003-5.602-18.007-11.605-29.612-18.407s-22.409-12.005-32.813-15.606c-10.404-3.601-20.008-5.202-28.411-5.202h-1.2c-8.803 0-18.407 1.601-28.411 5.202-10.404 3.601-21.208 8.403-32.813 15.606-11.605 6.803-21.608 13.205-29.612 18.407-8.003 5.602-18.407 12.805-30.812 21.608s-20.408 14.806-24.41 17.607c-34.814 24.41-84.433 59.223-149.658 104.441s-104.041 72.428-117.246 81.632c-23.609 16.006-46.018 38.015-66.826 66.026s-31.612 54.021-31.612 78.030c0 29.612 8.003 54.421 23.609 74.429s38.415 29.612 67.626 29.612h841.129c24.81 0 46.018-8.803 64.425-26.81s26.81-39.615 26.81-64.825v0z" />
<glyph unicode="&#xe64a;" glyph-name="group-o" data-tags="group-o" d="M1024-11.327h-272.639v171.201c0 52.523-6.014 62.146-163.182 140.73l-40.094 20.047 36.886 26.061c21.651 15.236 28.868 30.070 28.868 59.339 0 5.613 0 5.613-4.811 12.028-7.618 10.023-19.646 25.259-26.061 62.547-18.443 11.627-25.66 29.269-28.066 62.547 0 17.24 4.009 29.269 9.222 37.688-2.005 12.429-4.41 32.476-6.014 48.915-2.005 26.462 6.014 68.962 35.684 101.438 18.042 19.245 50.919 42.5 107.051 42.5s89.009-23.255 107.051-42.5c29.67-32.476 38.089-74.976 35.684-101.438-1.203-16.439-4.009-36.486-6.014-48.915 4.811-8.019 9.222-19.646 9.222-36.085-2.406-35.684-10.023-52.924-28.066-64.551-6.415-37.287-18.042-52.122-26.061-62.146-4.811-6.415-4.811-6.415-4.811-12.028 0-36.085 7.618-55.33 78.183-84.999 80.589-33.679 120.282-54.528 140.73-89.009 3.608-6.415 14.835-25.259 16.839-216.106l0.401-27.264zM805.488 42.8h163.984c-1.203 72.971-5.212 150.352-10.023 164.385-11.226 18.844-47.311 36.886-113.867 64.551-70.565 29.67-111.461 60.943-111.461 134.716 0 24.056 9.222 36.085 16.038 44.905 6.014 7.618 11.627 15.236 16.038 41.297 3.608 22.453 17.641 30.471 23.655 33.679 0 0 2.406 5.212 3.208 20.849 0 2.005-0.401 3.608-0.802 4.811l-12.83 6.816 3.208 19.245c0 0.401 5.212 32.075 7.217 56.933 1.203 13.632-3.608 40.896-21.651 60.141-15.236 16.839-38.089 25.259-67.358 25.259s-52.122-8.42-67.358-25.259c-18.042-19.245-22.854-46.509-21.651-60.141 2.005-24.858 7.217-56.933 7.217-56.933l3.208-18.844-12.429-6.816c-0.401-1.203-0.802-3.608-0.802-6.816 1.203-15.236 3.608-20.047 3.608-20.047 5.613-2.406 19.245-10.023 23.255-32.476 4.009-26.061 10.023-33.679 16.038-41.297 6.816-8.821 16.038-20.849 16.038-44.905 0-30.471-6.415-54.528-21.25-74.174 127.9-64.952 159.173-89.81 159.173-172.003v-117.876h-0.401zM727.706-11.327h-727.706v203.677c0 60.943 60.542 86.202 93.419 99.433l4.811 2.005c93.419 38.891 109.857 65.754 109.857 121.485 0 10.424-1.604 12.83-8.42 21.25-10.825 14.033-25.259 33.278-33.679 83.395-20.047 10.825-33.278 28.066-36.486 78.584 0 22.854 6.014 38.089 12.429 47.712-2.406 16.038-6.415 44.504-8.42 67.759-2.406 26.863 4.811 84.197 45.306 128.301 32.476 35.283 79.386 53.726 136.319 53.726 56.532 0 103.843-18.443 136.319-53.726 40.495-43.702 47.311-101.037 45.306-128.301-2.005-23.655-6.014-51.721-8.42-67.759 6.415-9.623 12.429-24.056 12.429-46.108-3.208-52.122-16.439-69.363-36.886-80.589-7.618-50.117-22.453-68.962-33.278-82.995-6.816-8.821-8.42-10.825-8.42-21.25 0-55.731 16.439-82.594 109.857-121.485 106.249-44.504 194.456-86.202 194.456-145.942v-159.173h1.203zM53.726 42.8h619.853v105.447c0 18.844-54.127 51.32-161.579 96.226-93.018 38.891-143.135 77.782-143.135 171.201 0 28.868 10.825 42.901 19.245 54.127 8.019 10.424 17.24 22.453 23.255 58.938 3.608 22.854 15.236 32.075 26.863 38.49 2.406 1.604 7.217 7.217 9.222 34.882 0 10.424-3.208 14.434-3.208 14.434l-17.24 9.222 6.415 16.839c0 0.401 7.217 43.301 9.623 76.579 1.203 16.839-3.208 56.933-31.273 87.405-22.453 24.056-54.929 36.486-96.626 36.486s-74.174-12.429-96.626-36.486c-27.665-30.070-32.476-70.164-31.273-87.405 2.807-33.278 9.623-76.579 9.623-76.579l3.208-19.245-16.038-8.42c0.802 0.401-0.802-4.009-0.802-14.434 1.604-26.061 6.415-31.674 6.415-31.674 14.434-8.019 25.66-17.24 29.269-39.693 6.014-36.886 15.236-48.514 23.255-58.938 8.821-11.226 19.245-25.259 19.245-54.127 0-93.419-50.117-132.31-143.135-171.201l-5.212-2.005c-31.674-12.83-60.141-26.462-60.141-49.717v-150.352h0.802z" />
<glyph unicode="&#xe64b;" glyph-name="group" data-tags="group" d="M1016.4 19.2s-2 190.8-13.6 210.4c-17.2 29.6-57.6 49.6-132.8 81.2-74.8 31.2-98.8 57.6-98.8 114 0 34 22.8 22.8 32.8 84.8 4 25.6 24.4 0.4 28 59.2 0 23.6-11.2 29.2-11.2 29.2s5.6 34.8 7.6 61.2c2.8 33.2-16.8 119.2-120.4 119.2s-123.2-86-120.4-119.2c2-26.8 7.6-61.2 7.6-61.2s-10.8-6-10.8-29.2c4-58.8 24-33.6 28-59.2 10-62 32.8-50.8 32.8-84.8 0-38.4-11.2-62.8-41.6-84.4 163.2-81.6 185.2-98.4 185.2-171.6v-149.6h227.6zM524 282.4c-99.6 41.6-131.6 76.8-131.6 152 0 45.2 30.4 30.4 43.6 113.2 5.6 34.4 32.4 0.4 37.6 78.8 0 31.2-14.8 38.8-14.8 38.8s7.6 46 10.4 81.6c3.6 44.4-22.4 158.8-160.8 158.8s-164.4-114.4-160.8-158.8c2.8-35.6 10.4-81.6 10.4-81.6s-14-7.2-14-38.8c5.2-78.4 32-44.4 37.6-78.8 13.2-82.8 43.6-68 43.6-113.2 0-75.2-32-110.4-131.6-152-30.4-12.8-84.8-32.4-84.8-79.6v-183.6h700v137.6c0 43.2-84.8 84-184.8 125.6z" />
<glyph unicode="&#xe64c;" glyph-name="heart" data-tags="heart" d="M269.031 928c-148.348 0-269.031-120.282-269.031-269.031 0-301.908 512-679.593 512-679.593s512 387.308 512 679.593c0 148.348-120.683 269.031-269.031 269.031-107.452 0-200.069-63.348-242.969-155.164-42.901 91.414-135.518 155.164-242.969 155.164v0z" />
</font>
</defs>
</svg>
