<svg xmlns="http://www.w3.org/2000/svg" viewBox="0 0 126 40" enable-background="new 0 0 126 40"><path fill-rule="evenodd" clip-rule="evenodd" fill="#0AA1D8" d="M2 0h122c1.1 0 2 .9 2 2v36c0 1.1-.9 2-2 2h-122c-1.1 0-2-.9-2-2v-36c0-1.1.9-2 2-2z"/><path fill-rule="evenodd" clip-rule="evenodd" fill="#fff" d="M29 17v-2h-10v2h10zm-11 10c-.6 0-1-.5-1-1v-12c0-.5.5-1 1-1h12c.6 0 1 .5 1 1v5.1c.3-.1.7-.1 1-.1.3 0 .7 0 1 .1v-6.1c0-1.1-.9-2-2-2h-14c-1.1 0-2 .9-2 2v14c0 1.1.9 2 2 2h10.6c-.5-.6-.9-1.3-1.2-2h-8.4zm8.4-4h-7.4v2h7c0-.7.2-1.4.4-2zm2.6-4h-10v2h8.6c.4-.5.9-.9 1.5-1.2v-.8zm6 5.1h-1.9v-1.9c0-.5-.4-1-1-1-.5 0-1 .4-1 1v1.9h-1.9c-.5 0-1 .4-1 1s.4 1 1 1h1.9v1.9c0 .5.4 1 1 1 .5 0 1-.4 1-1v-2h1.9c.5 0 1-.4 1-1s-.4-.9-1-.9z"/><path fill="#fff" d="M45.3 15.7l-3.3 8.6h1.2l.9-2.6h3.6l1 2.6h1.3l-3.5-8.6h-1.2zm-.8 5.1l.9-2.5c.2-.5.4-1.1.5-1.6.1.5.3 1.1.6 1.8l.9 2.4h-2.9zm12.5-4.4c-.3-.3-.8-.5-1.3-.6-.4-.1-.9-.1-1.5-.1h-3v8.6h3.1c.5 0 1 0 1.4-.1.4-.1.7-.2 1-.4.3-.2.5-.4.8-.8.2-.3.4-.7.6-1.3.2-.5.2-1.1.2-1.7 0-.8-.1-1.4-.3-2-.2-.7-.6-1.2-1-1.6zm-.1 5.2c-.2.5-.4.8-.6 1.1-.2.2-.4.3-.8.4-.3.1-.8.2-1.3.2h-1.8v-6.6h1.8c.7 0 1.2.1 1.5.2.4.2.8.5 1.1 1 .3.5.4 1.2.4 2.1 0 .6-.1 1.1-.3 1.6zm9.1-5.2c-.3-.3-.8-.5-1.3-.6-.4-.1-.9-.1-1.5-.1h-3v8.6h3.1c.5 0 1 0 1.4-.1.4-.1.7-.2 1-.4.3-.2.5-.4.8-.8.2-.3.4-.7.6-1.3.2-.5.2-1.1.2-1.7 0-.8-.1-1.4-.3-2-.3-.7-.6-1.2-1-1.6zm-.1 5.2c-.2.5-.4.8-.6 1.1-.2.2-.4.3-.8.4-.3.1-.8.2-1.3.2h-1.8v-6.6h1.8c.7 0 1.2.1 1.5.2.4.2.8.5 1.1 1 .3.5.4 1.2.4 2.1-.1.6-.1 1.1-.3 1.6zm7 2.7h1.1v-3.9h4v-1h-4v-2.7h4.7v-1h-5.8v8.6zm7.7 0h1.1v-8.6h-1.1v8.6zm4.6-8.6h-1.2v8.6h5.4v-1h-4.2v-7.6zm7 4.7h4.8v-1h-4.8v-2.6h5.1v-1h-6.2v8.6h6.4v-1h-5.3v-3zm13.2.2c-.2-.4-.6-.6-1.1-.9-.3-.2-1-.3-1.9-.5-.9-.2-1.5-.4-1.7-.6-.2-.2-.3-.5-.3-.8 0-.4.2-.7.5-.9.3-.3.8-.4 1.5-.4s1.2.1 1.5.4c.3.3.5.7.6 1.2l1.1-.1c0-.5-.2-1-.4-1.4-.3-.4-.6-.7-1.1-.9-.5-.2-1-.3-1.7-.3-.6 0-1.1.1-1.6.3-.5.2-.8.5-1.1.9-.2.4-.4.8-.4 1.2 0 .4.1.8.3 1.1.2.3.5.6.9.8.3.2.9.3 1.7.5.8.2 1.3.3 1.5.4.4.1.6.3.8.5.2.2.2.4.2.7 0 .3-.1.5-.2.7-.2.2-.4.4-.7.5-.3.1-.7.2-1.1.2-.5 0-.9-.1-1.3-.3-.4-.2-.7-.4-.9-.7s-.3-.6-.4-1.1l-1.1.4c0 .6.2 1.1.5 1.5.3.5.7.8 1.2 1 .5.2 1.2.3 2 .3.6 0 1.2-.1 1.7-.3.5-.2.9-.5 1.1-.9.3-.4.4-.8.4-1.3-.1-.4-.2-.8-.5-1.2z"/></svg>