<svg xmlns="http://www.w3.org/2000/svg" viewBox="0 0 144 40" enable-background="new 0 0 144 40"><path fill-rule="evenodd" clip-rule="evenodd" fill="#0AA1D8" d="M2 0h140c1.1 0 2 .9 2 2v36c0 1.1-.9 2-2 2h-140c-1.1 0-2-.9-2-2v-36c0-1.1.9-2 2-2z"/><path fill="#fff" d="M27 14.6c-.6 0-1 .4-1 1.1 0 .6.4.9 1 .9s1-.3 1-1-.4-1-1-1zm0 12.8c-.2-.2-.3-.4-.5-.4h-8.5c-.6 0-1-.9-1-1.5v-12c0-.5.5-.5 1-.5h12c.6 0 1 0 1 .5v4.5s.6-.1 1-.1 1 0 1 .1v-4.5c0-1.7-1.3-2.6-3-2.6h-12c-1.7 0-3 .9-3 2.6v12c0 1.7 1.4 3.5 3 3.5h10.1c-.3-.5-.6-1-.8-1.3l-.3-.3zm-.8-8.3c-.4.5-.4.9-.7 1.3-.3.3-1.1.4-1.5-.8-.1-.4-1-2.1-1.2-2.5-.2-.5-1.3-.5-1.8.2-.3.5-2.1 3.2-2.1 3.4v2.6c0 .4.5.8.5.8h6.6c.1-2 .8-3.3 2-4.3v-.2c-.1-.3-.3-.5-.3-.6-.2-.4-1-.5-1.5.1zm8.8 4.1h-1.9v-1.9c0-.5-.4-1-1-1-.5 0-1 .4-1 1v1.9h-1.9c-.5 0-1 .4-1 1 0 .5.4 1 1 1h1.9v1.8c0 .5.4 1 1 1 .5 0 1-.4 1-1v-1.9h1.9c.5 0 1-.4 1-1 0-.5-.4-.9-1-.9zM45.9 15.7l-3.3 8.6h1.2l.9-2.6h3.6l1 2.6h1.3l-3.5-8.6h-1.2zm-.9 5.1l.9-2.5c.2-.5.4-1.1.5-1.6.1.5.3 1.1.6 1.8l.9 2.4h-2.9zm12.6-4.4c-.3-.3-.8-.5-1.3-.6-.4-.1-.9-.1-1.5-.1h-3v8.6h3.1c.5 0 1 0 1.4-.1.4-.1.7-.2 1-.4.3-.2.5-.4.8-.8.2-.3.4-.7.6-1.3.2-.5.2-1.1.2-1.7 0-.8-.1-1.4-.3-2-.3-.7-.6-1.2-1-1.6zm-.1 5.2c-.2.5-.4.8-.6 1.1-.2.2-.4.3-.8.4-.3.1-.8.2-1.3.2h-1.8v-6.6h1.8c.7 0 1.2.1 1.5.2.4.2.8.5 1.1 1 .3.5.4 1.2.4 2.1-.1.6-.1 1.1-.3 1.6zm9-5.2c-.3-.3-.8-.5-1.3-.6-.4-.1-.9-.1-1.5-.1h-3v8.6h3.1c.5 0 1 0 1.4-.1.4-.1.7-.2 1-.4.3-.2.5-.4.8-.8.2-.3.4-.7.6-1.3.2-.5.2-1.1.2-1.7 0-.8-.1-1.4-.3-2-.2-.7-.5-1.2-1-1.6zm0 5.2c-.2.5-.4.8-.6 1.1-.2.2-.4.3-.8.4-.3.1-.8.2-1.3.2h-1.8v-6.6h1.8c.7 0 1.2.1 1.5.2.4.2.8.5 1.1 1 .3.5.4 1.2.4 2.1-.1.6-.2 1.1-.3 1.6zm12.5-5.4c-.3-.2-.6-.3-1.1-.4-.3-.1-.7-.1-1.3-.1h-3.2v8.6h1.1v-3.5h2.2c1.2 0 2.1-.3 2.5-.8.5-.5.7-1.1.7-1.9 0-.4-.1-.8-.3-1.2-.1-.2-.3-.5-.6-.7zm-.7 3.2c-.3.3-.8.4-1.6.4h-2.2v-3.1h2.2c.5 0 .9 0 1.1.1.3.1.5.3.7.5.2.3.3.6.3.9 0 .5-.2.9-.5 1.2zm9-.2h-4.5v-3.5h-1.1v8.6h1.1v-4h4.5v4h1.1v-8.6h-1.1v3.5zm9.3-3.1c-.6-.4-1.4-.6-2.1-.6-1.2 0-2.2.4-3 1.2-.8.8-1.1 1.9-1.1 3.3 0 .8.2 1.5.5 2.1.3.7.8 1.2 1.4 1.6.6.4 1.4.6 2.2.6.7 0 1.4-.2 2.1-.5.6-.4 1.1-.9 1.5-1.6.4-.7.5-1.5.5-2.3 0-.9-.2-1.6-.5-2.3-.4-.6-.9-1.1-1.5-1.5zm-.1 6.5c-.6.6-1.3.9-2.1.9s-1.5-.3-2.1-.9c-.6-.6-.8-1.4-.8-2.4 0-1.3.3-2.2.9-2.8.6-.6 1.3-.8 2.1-.8.6 0 1.1.1 1.5.4.5.3.8.7 1 1.2.2.5.4 1.1.4 1.8-.1 1.1-.3 2-.9 2.6zm3.1-5.9h2.8v7.6h1.1v-7.6h2.8v-1h-6.8v1zm14-.6c-.6-.4-1.4-.6-2.1-.6-1.2 0-2.2.4-3 1.2-.8.8-1.1 1.9-1.1 3.3 0 .8.2 1.5.5 2.1.3.7.8 1.2 1.4 1.6.6.4 1.4.6 2.2.6.7 0 1.4-.2 2.1-.5.6-.4 1.1-.9 1.5-1.6.4-.7.5-1.5.5-2.3 0-.9-.2-1.6-.5-2.3-.4-.6-.9-1.1-1.5-1.5zm0 6.5c-.6.6-1.3.9-2.1.9s-1.5-.3-2.1-.9c-.6-.6-.8-1.4-.8-2.4 0-1.3.3-2.2.9-2.8.6-.6 1.3-.8 2.1-.8.6 0 1.1.1 1.5.4.5.3.8.7 1 1.2.2.5.4 1.1.4 1.8-.1 1.1-.4 2-.9 2.6zm9.8-1.9c-.2-.4-.6-.6-1.1-.9-.3-.2-1-.3-1.9-.5-.9-.2-1.5-.4-1.7-.6-.2-.2-.3-.5-.3-.8 0-.4.2-.7.5-.9.3-.3.8-.4 1.5-.4s1.2.1 1.5.4c.3.3.5.7.6 1.2l1.1-.1c0-.5-.2-1-.4-1.4-.3-.4-.6-.7-1.1-.9-.5-.2-1-.3-1.7-.3-.6 0-1.1.1-1.6.3-.5.2-.8.5-1.1.9-.2.4-.4.8-.4 1.2 0 .4.1.8.3 1.1.2.3.5.6.9.8.3.2.9.3 1.7.5.8.2 1.3.3 1.5.4.4.1.6.3.8.5.2.2.2.4.2.7 0 .3-.1.5-.2.7-.2.2-.4.4-.7.5-.3.1-.7.2-1.1.2-.5 0-.9-.1-1.3-.3-.4-.2-.7-.4-.9-.7s-.3-.6-.4-1.1l-1.1.1c0 .6.2 1.1.5 1.5.3.5.7.8 1.2 1 .5.2 1.2.3 2 .3.6 0 1.2-.1 1.7-.3.5-.2.9-.5 1.1-.9.3-.4.4-.8.4-1.3-.1-.2-.2-.6-.5-.9z"/></svg>