<svg xmlns="http://www.w3.org/2000/svg" viewBox="0 0 139 40" enable-background="new 0 0 139 40"><path fill-rule="evenodd" clip-rule="evenodd" fill="#0AA1D8" d="M2 0h135c1.1 0 2 .9 2 2v36c0 1.1-.9 2-2 2h-135c-1.1 0-2-.9-2-2v-36c0-1.1.9-2 2-2z"/><path fill-rule="evenodd" clip-rule="evenodd" fill="#fff" d="M18 27c-.6 0-1-.5-1-1v-12c0-.5.5-1 1-1h12.1c.6 0 1 .5 1 1v5.1c.3-.1.7-.1 1-.1s.7 0 1 .1v-5.1c0-1.7-1.4-3-3-3h-12.1c-1.7 0-3 1.3-3 3v12c0 1.7 1.4 3 3 3h9.6c-.5-.6-.9-1.3-1.2-2h-8.4zm11.1-10l-3 1.7v-.4c0-.7-.6-1.4-1.3-1.4h-4.4c-.7 0-1.3.6-1.3 1.4v3.3c0 .7.6 1.4 1.3 1.4h4.4c.7 0 1.3-.6 1.3-1.4v-.5l1 .6c.5-.8 1.2-1.5 2.1-1.9v-2.8zm5.9 7h-1.9v-1.9c0-.5-.4-1-1-1-.5 0-1 .4-1 1v1.9h-1.9c-.5 0-1 .4-1 1 0 .5.4 1 1 1h1.9v1.9c0 .5.4 1 1 1 .5 0 1-.4 1-1v-1.9h1.9c.5 0 1-.4 1-1 0-.5-.5-1-1-1z"/><path fill="#fff" d="M45.9 15.7l-3.3 8.6h1.2l.9-2.6h3.6l1 2.6h1.3l-3.5-8.6h-1.2zm-.9 5.1l.9-2.5c.2-.5.4-1.1.5-1.6.1.5.3 1.1.6 1.8l.9 2.4h-2.9zm12.6-4.4c-.3-.3-.8-.5-1.3-.6-.4-.1-.9-.1-1.5-.1h-3v8.6h3.1c.5 0 1 0 1.4-.1.4-.1.7-.2 1-.4.3-.2.5-.4.8-.8.2-.3.4-.7.6-1.3.2-.5.2-1.1.2-1.7 0-.8-.1-1.4-.3-2-.3-.7-.6-1.2-1-1.6zm-.1 5.2c-.2.5-.4.8-.6 1.1-.2.2-.4.3-.8.4-.3.1-.8.2-1.3.2h-1.8v-6.6h1.8c.7 0 1.2.1 1.5.2.4.2.8.5 1.1 1 .3.5.4 1.2.4 2.1-.1.6-.1 1.1-.3 1.6zm9-5.2c-.3-.3-.8-.5-1.3-.6-.4-.1-.9-.1-1.5-.1h-3v8.6h3.1c.5 0 1 0 1.4-.1.4-.1.7-.2 1-.4.3-.2.5-.4.8-.8.2-.3.4-.7.6-1.3s.2-1.1.2-1.7c0-.8-.1-1.4-.3-2-.2-.7-.5-1.2-1-1.6zm0 5.2c-.2.5-.4.8-.6 1.1-.2.2-.4.3-.8.4-.3.1-.8.2-1.3.2h-1.8v-6.6h1.8c.7 0 1.2.1 1.5.2.4.2.8.5 1.1 1 .3.5.4 1.2.4 2.1-.1.6-.2 1.1-.3 1.6zm10.4.3l-.5 1.4c-.1-.4-.3-.9-.5-1.4l-2.2-6.2h-1.2l3.3 8.6h1.2l3.4-8.6h-1.2l-2.3 6.2zm5 2.4h1.1v-8.6h-1.1v8.6zm9.2-7.9c-.3-.3-.8-.5-1.3-.6-.4-.1-.9-.1-1.5-.1h-3v8.6h3.1c.5 0 1 0 1.4-.1.4-.1.7-.2 1-.4.3-.2.5-.4.8-.8.2-.3.4-.7.6-1.3.2-.5.2-1.1.2-1.7 0-.8-.1-1.4-.3-2-.3-.7-.6-1.2-1-1.6zm-.1 5.2c-.2.5-.4.8-.6 1.1-.2.2-.4.3-.8.4-.3.1-.8.2-1.3.2h-1.8v-6.6h1.8c.7 0 1.2.1 1.5.2.4.2.8.5 1.1 1 .3.5.4 1.2.4 2.1-.1.6-.1 1.1-.3 1.6zm4.4-1.2h4.8v-1h-4.8v-2.6h5.1v-1h-6.2v8.6h6.4v-1h-5.3v-3zm13.1-4.3c-.6-.4-1.4-.6-2.1-.6-1.2 0-2.2.4-3 1.2-.8.8-1.1 1.9-1.1 3.3 0 .8.2 1.5.5 2.1.3.7.8 1.2 1.4 1.6.6.4 1.4.6 2.2.6.7 0 1.4-.2 2.1-.5.6-.4 1.1-.9 1.5-1.6.4-.7.5-1.5.5-2.3 0-.9-.2-1.6-.5-2.3-.4-.6-.9-1.1-1.5-1.5zm-.1 6.5c-.6.6-1.3.9-2.1.9s-1.5-.3-2.1-.9c-.6-.6-.8-1.4-.8-2.4 0-1.3.3-2.2.9-2.8.6-.6 1.3-.8 2.1-.8.6 0 1.1.1 1.5.4.5.3.8.7 1 1.2.2.5.4 1.1.4 1.8 0 1.1-.3 2-.9 2.6zm9.9-1.9c-.2-.4-.6-.6-1.1-.9-.3-.2-1-.3-1.9-.5-.9-.2-1.5-.4-1.7-.6-.2-.2-.3-.5-.3-.8 0-.4.2-.7.5-.9.3-.3.8-.4 1.5-.4s1.2.1 1.5.4c.3.3.5.7.6 1.2l1.1-.1c0-.5-.2-1-.4-1.4-.3-.4-.6-.7-1.1-.9-.5-.2-1-.3-1.7-.3-.6 0-1.1.1-1.6.3-.5.2-.8.5-1.1.9-.2.4-.4.8-.4 1.2 0 .4.1.8.3 1.1.2.3.5.6.9.8.3.2.9.3 1.7.5.8.2 1.3.3 1.5.4.4.1.6.3.8.5.2.2.2.4.2.7 0 .3-.1.5-.2.7-.2.2-.4.4-.7.5-.3.1-.7.2-1.1.2-.5 0-.9-.1-1.3-.3-.4-.2-.7-.4-.9-.7-.2-.3-.3-.6-.4-1.1l-1.1.1c0 .6.2 1.1.5 1.5.3.5.7.8 1.2 1 .5.2 1.2.3 2 .3.6 0 1.2-.1 1.7-.3.5-.2.9-.5 1.1-.9s.4-.8.4-1.3c-.1-.2-.3-.6-.5-.9z"/></svg>