<svg xmlns="http://www.w3.org/2000/svg" viewBox="0 0 154 44" enable-background="new 0 0 154 44"><path fill="#0098D5" d="M151 43.9h-148.1c-1.7 0-3-1.4-3-3v-37.9c0-1.7 1.4-3 3-3h148c1.7 0 3 1.4 3 3v38c.1 1.6-1.3 2.9-2.9 2.9z"/><path fill="#fff" d="M12.3 28.8c-1 0-2-.4-2.7-1.1-1.4-1.4-1.5-3.7-.2-5l2.8-2.8c.6-.6 1.5-1 2.5-1 .6 0 1.2.1 1.7.4.3.2.6.4.9.7.2.2.4.5.6.8l-1.4 1.4c-.1-.3-.2-.6-.5-.9-.3-.3-.8-.5-1.3-.5-.2 0-.4 0-.5.1-.4.2-.8.5-1.1.8l-2.3 2.3c-.6.6-.6 1.7.1 2.4.3.3.8.5 1.3.5.4 0 .8-.2 1.1-.5l1.1-1.1c.7.3 1.4.4 2 .4h.2l-2 2c-.5.8-1.4 1.1-2.3 1.1zm4.2-3.8c-.5 0-1.1-.1-1.7-.4l-.4-.2c-.3-.2-.6-.4-.9-.7-.2-.2-.5-.5-.6-.8l.5-.5.1-.1c.1-.1.1-.2.2-.2l.5-.5c.1.3.2.6.5.9.3.3.8.5 1.2.5h.4c.3-.1.6-.2.8-.4l2.6-2.6c.3-.3.5-.7.5-1.2s-.2-.9-.5-1.2c-.3-.3-.8-.5-1.3-.5-.4 0-.8.2-1.1.5l-.9.9-.3-.1c-.2-.1-.3-.1-.3-.1-.3-.1-.6-.1-.9-.1h-.2c-.2 0-.5 0-.7.1h-.1l2-2c.6-.6 1.5-1 2.4-1 1 0 2 .4 2.7 1.1.7.7 1.1 1.6 1.1 2.6s-.3 1.8-1 2.5l-3.1 3.1-.1.1c-.4.2-.8.3-1.4.3z"/><g fill="#fff"><path d="M37.1 24.1l1.3.3c-.3 1.1-.8 1.9-1.5 2.5-.7.6-1.6.9-2.6.9-1.1 0-2-.2-2.6-.7-.7-.4-1.2-1.1-1.5-1.9s-.5-1.7-.5-2.7c0-1 .2-2 .6-2.7s1-1.4 1.7-1.8 1.5-.6 2.4-.6c1 0 1.8.3 2.5.8s1.2 1.2 1.4 2.2l-1.3.2c-.2-.7-.6-1.3-1-1.6s-1-.5-1.7-.5c-.8 0-1.4.2-1.9.6s-.9.9-1.1 1.5-.3 1.3-.3 1.9c0 .9.1 1.6.4 2.2s.6 1.1 1.2 1.4 1.1.5 1.7.5c.7 0 1.4-.2 1.9-.6.4-.4.7-1.1.9-1.9zM39.8 24c0-1.3.4-2.3 1.1-3 .6-.5 1.4-.8 2.3-.8 1 0 1.8.3 2.4 1s1 1.6 1 2.7c0 .9-.1 1.7-.4 2.2-.3.5-.7 1-1.2 1.2-.5.3-1.1.4-1.8.4-1 0-1.8-.3-2.5-1-.6-.6-.9-1.5-.9-2.7zm1.3 0c0 .9.2 1.6.6 2.1.4.5.9.7 1.5.7s1.1-.2 1.5-.7.6-1.2.6-2.1c0-.9-.2-1.6-.6-2s-.9-.7-1.5-.7-1.1.2-1.5.7-.6 1-.6 2zM48.4 30.4v-10h1.1v.9c.3-.4.6-.6.9-.8s.7-.3 1.2-.3c.6 0 1.2.2 1.6.5s.8.8 1.1 1.4.4 1.2.4 1.9-.1 1.4-.4 2-.7 1.1-1.2 1.4c-.5.3-1 .5-1.6.5-.4 0-.8-.1-1.1-.3-.3-.2-.6-.4-.8-.7v3.5h-1.2zm1.1-6.4c0 .9.2 1.6.6 2.1.4.4.8.7 1.4.7.5 0 1-.2 1.4-.7.4-.5.6-1.2.6-2.1 0-.9-.2-1.6-.6-2.1s-.8-.7-1.4-.7c-.5 0-1 .2-1.4.7s-.6 1.2-.6 2.1zM56.5 30.4l-.1-1.2c.3.1.5.1.7.1.3 0 .5 0 .7-.1.2-.1.3-.2.4-.4.1-.1.2-.4.4-.9l.1-.3-2.8-7.3h1.3l1.5 4.2c.2.5.4 1.1.5 1.7.1-.6.3-1.1.5-1.7l1.6-4.2h1.2l-2.8 7.4c-.3.8-.5 1.3-.7 1.6-.2.4-.5.7-.8.9-.3.2-.6.3-1 .3-.2 0-.4 0-.7-.1zM70.8 26.5l.2 1.1c-.3.1-.7.1-.9.1-.4 0-.8-.1-1-.2-.2-.1-.4-.3-.5-.6-.1-.2-.2-.7-.2-1.5v-4.2h-.9v-1h.9v-1.8l1.2-.7v2.5h1.2v1h-1.2v4.2c0 .4 0 .6.1.7 0 .1.1.2.2.2.1.1.2.1.4.1.1.1.3.1.5.1zM71.9 24c0-1.3.4-2.3 1.1-3 .6-.5 1.4-.8 2.3-.8 1 0 1.8.3 2.4 1s1 1.6 1 2.7c0 .9-.1 1.7-.4 2.2-.3.5-.7 1-1.2 1.2-.5.3-1.1.4-1.8.4-1 0-1.8-.3-2.5-1-.6-.6-.9-1.5-.9-2.7zm1.3 0c0 .9.2 1.6.6 2.1.4.5.9.7 1.5.7s1.1-.2 1.5-.7c.4-.5.6-1.2.6-2.1 0-.9-.2-1.6-.6-2-.4-.5-.9-.7-1.5-.7s-1.1.2-1.5.7-.6 1-.6 2zM89.5 24.9l1.2.2c-.1.8-.5 1.5-1 2s-1.2.7-2 .7c-1 0-1.8-.3-2.4-1-.6-.6-.9-1.6-.9-2.8 0-.8.1-1.5.4-2.1s.7-1 1.2-1.3c.5-.3 1.1-.4 1.7-.4.8 0 1.4.2 1.9.6s.8 1 1 1.7l-1.2.2c-.1-.5-.3-.9-.6-1.1-.3-.2-.6-.4-1-.4-.6 0-1.1.2-1.5.7s-.7 1.1-.7 2.1.2 1.7.6 2.1c.4.4.9.7 1.5.7.5 0 .9-.1 1.2-.4.3-.4.5-.8.6-1.5zM92.1 27.6v-10h1.2v10h-1.2zM95.6 19v-1.4h1.2v1.4h-1.2zm0 8.6v-7.3h1.2v7.3h-1.2zM99 30.4v-10h1.1v.9c.3-.4.6-.6.9-.8s.7-.3 1.2-.3c.6 0 1.2.2 1.6.5s.8.8 1.1 1.4.4 1.2.4 1.9-.1 1.4-.4 2c-.3.6-.7 1.1-1.2 1.4-.5.3-1 .5-1.6.5-.4 0-.8-.1-1.1-.3-.3-.2-.6-.4-.8-.7v3.5h-1.2zm1.1-6.4c0 .9.2 1.6.6 2.1.4.4.8.7 1.4.7.5 0 1-.2 1.4-.7.4-.5.6-1.2.6-2.1 0-.9-.2-1.6-.6-2.1-.4-.5-.8-.7-1.4-.7-.5 0-1 .2-1.4.7-.4.5-.6 1.2-.6 2.1zM108.3 27.6h-1.1v-10h1.2v3.6c.5-.7 1.2-1 2-1 .4 0 .9.1 1.3.3.4.2.7.4 1 .8.3.3.5.7.6 1.2s.2 1 .2 1.5c0 1.2-.3 2.2-.9 2.9-.6.7-1.4 1-2.2 1-.9 0-1.5-.4-2-1.1v.8zm0-3.7c0 .9.1 1.5.4 1.9.4.6.9 1 1.6 1 .5 0 1-.2 1.4-.7.4-.5.6-1.2.6-2.1 0-.9-.2-1.6-.6-2.1-.4-.5-.8-.7-1.4-.7-.5 0-1 .2-1.4.7s-.6 1.1-.6 2zM114.8 24c0-1.3.4-2.3 1.1-3 .6-.5 1.4-.8 2.3-.8 1 0 1.8.3 2.4 1s1 1.6 1 2.7c0 .9-.1 1.7-.4 2.2-.3.5-.7 1-1.2 1.2-.5.3-1.1.4-1.8.4-1 0-1.8-.3-2.5-1-.6-.6-.9-1.5-.9-2.7zm1.3 0c0 .9.2 1.6.6 2.1.4.5.9.7 1.5.7s1.1-.2 1.5-.7.6-1.2.6-2.1c0-.9-.2-1.6-.6-2-.4-.5-.9-.7-1.5-.7s-1.1.2-1.5.7-.6 1-.6 2zM128.2 26.7c-.5.4-.9.7-1.3.8-.4.2-.9.2-1.4.2-.8 0-1.4-.2-1.8-.6s-.6-.9-.6-1.5c0-.4.1-.7.2-1 .2-.3.4-.5.6-.7.3-.2.6-.3.9-.4.2-.1.6-.1 1.1-.2 1-.1 1.7-.3 2.2-.4v-.3c0-.5-.1-.9-.3-1.1-.3-.3-.8-.4-1.4-.4-.6 0-1 .1-1.3.3-.3.2-.5.6-.6 1.1l-1.2-.2c.1-.5.3-.9.5-1.2s.6-.6 1.1-.7 1-.3 1.6-.3c.6 0 1.1.1 1.5.2s.7.3.9.6.3.5.4.8c0 .2.1.6.1 1.1v1.6c0 1.1 0 1.9.1 2.2l.3.9h-1.3c-.2-.2-.3-.5-.3-.8zm-.1-2.7c-.4.2-1.1.3-2 .5-.5.1-.9.2-1.1.2-.2.1-.4.2-.5.4-.1.2-.2.4-.2.6 0 .3.1.6.4.8.2.2.6.3 1.1.3.5 0 .9-.1 1.3-.3.4-.2.6-.5.8-.9.1-.3.2-.7.2-1.2v-.4zM131.5 27.6v-7.3h1.1v1.1c.3-.5.5-.9.8-1 .2-.2.5-.2.8-.2.4 0 .8.1 1.3.4l-.4 1.1c-.3-.2-.6-.3-.9-.3-.3 0-.5.1-.7.2s-.4.4-.5.7c-.1.4-.2.9-.2 1.4v3.8h-1.3zM141.3 27.6v-.9c-.5.7-1.1 1.1-2 1.1-.6 0-1.1-.2-1.6-.5s-.9-.8-1.1-1.3c-.3-.6-.4-1.2-.4-2 0-.7.1-1.4.4-2s.6-1 1.1-1.4 1-.5 1.6-.5c.4 0 .8.1 1.2.3s.6.4.8.7v-3.6h1.2v10h-1.2zm-3.9-3.6c0 .9.2 1.6.6 2.1.4.5.9.7 1.4.7.5 0 1-.2 1.4-.7.4-.4.6-1.1.6-2 0-1-.2-1.7-.6-2.2s-.9-.7-1.4-.7c-.5 0-1 .2-1.4.7-.4.4-.6 1.1-.6 2.1z"/></g></svg>