<svg xmlns="http://www.w3.org/2000/svg" viewBox="0 0 10 9" enable-background="new 0 0 10 9"><path fill="#F6B13A" d="M9 3h-1c.6 0 1-.4 1-1v-1c0-.6-.4-1-1-1h-7c-.6 0-1 .4-1 1v1c0 .6.4 1 1 1h1c-.6 0-1 .4-1 1v1c0 .6.4 1 1 1h-1c-.6 0-1 .4-1 1v1c0 .6.4 1 1 1h7c.6 0 1-.4 1-1v-1c0-.6-.4-1-1-1h1c.6 0 1-.4 1-1v-1c0-.6-.4-1-1-1z"/><g fill="#EA9734"><path d="M3 0h1v3h-1zM5 0h1v3h-1zM7 0h1v3h-1zM1 0h1v3h-1z"/></g><g fill="#EA9734"><path d="M3 6h1v3h-1zM5 6h1v3h-1zM7 6h1v3h-1zM1 6h1v3h-1z"/></g><g fill="#EA9734"><path d="M4 3h1v3h-1zM6 3h1v3h-1zM8 3h1v3h-1zM2 3h1v3h-1z"/></g></svg>