<svg xmlns="http://www.w3.org/2000/svg" viewBox="0 0 8 12" enable-background="new 0 0 8 12"><linearGradient id="a" gradientUnits="userSpaceOnUse" x1="4" y1="11.892" x2="4" y2=".191"><stop offset="0" stop-color="#F6635A"/><stop offset="1" stop-color="#F88479"/></linearGradient><path fill-rule="evenodd" clip-rule="evenodd" fill="url(#a)" d="M7.5 2.3c-.9-1.7-2.2-2.1-3.5-2.1-1.3 0-2.6.5-3.5 2.1-.5.9-.4 2-.4 2 0 1.4 1.1 2.7 1.9 4.1l2 3.5 2-3.5c.8-1.4 1.9-2.7 1.9-4.1 0 0 0-1.1-.4-2zm-3.5 3.5c-.9 0-1.7-.8-1.7-1.7s.8-1.7 1.7-1.7 1.7.8 1.7 1.7-.8 1.7-1.7 1.7z"/></svg>