<svg xmlns="http://www.w3.org/2000/svg" viewBox="0 0 80 80" enable-background="new 0 0 80 80"><path fill="#627384" d="M28.4 56.4l3.2-4.5-3.5-3.5-4.5 3.2c-.8-.5-1.7-.8-2.7-1.1l-.9-5.5h-5l-.9 5.5c-.9.3-1.8.6-2.7 1.1l-4.5-3.2-3.5 3.5 3.2 4.5c-.5.8-.8 1.7-1.1 2.7l-5.5.9v5l5.5.9c.3.9.6 1.8 1.1 2.7l-3.2 4.5 3.5 3.5 4.5-3.2c.8.5 1.7.8 2.7 1.1l.9 5.5h5l.9-5.5c.9-.3 1.8-.6 2.7-1.1l4.5 3.2 3.5-3.5-3.2-4.5c.5-.8.8-1.7 1.1-2.7l5.5-.9v-5l-5.5-.9c-.2-1-.6-1.9-1.1-2.7zm-10.9 11.1c-2.8 0-5-2.2-5-5s2.2-5 5-5 5 2.2 5 5-2.2 5-5 5zm62.5-37.5v-5l-5.3-1c-.1-.6-.2-1.2-.4-1.9l4.5-2.9-1.8-4.5-5.2 1.1c-.3-.5-.7-1.1-1.1-1.6l3-4.4-3.5-3.5-4.4 3c-.5-.4-1-.7-1.6-1.1l1.1-5.2-4.6-1.9-2.9 4.5c-.6-.1-1.2-.3-1.9-.4l-.9-5.2h-5l-1 5.3c-.6.1-1.2.2-1.9.4l-2.9-4.5-4.5 1.8 1.1 5.2c-.5.3-1.1.7-1.6 1.1l-4.4-3-3.5 3.5 3 4.4c-.4.5-.7 1-1.1 1.6l-5.2-1.1-1.9 4.6 4.5 2.9c-.1.6-.3 1.2-.4 1.9l-5.2.9v5l5.3 1c.1.6.2 1.2.4 1.9l-4.5 2.9 1.9 4.6 5.2-1.1c.3.5.7 1.1 1.1 1.6l-3 4.4 3.5 3.5 4.4-3c.5.4 1 .7 1.6 1.1l-1.2 5.1 4.6 1.9 2.9-4.5c.6.1 1.2.3 1.9.4l1 5.3h5l1-5.3c.6-.1 1.2-.2 1.9-.4l2.9 4.5 4.6-1.9-1.1-5.2c.5-.3 1.1-.7 1.6-1.1l4.4 3 3.5-3.5-3-4.4c.4-.5.7-1 1.1-1.6l5.2 1.1 1.9-4.6-4.5-2.9c.1-.6.3-1.2.4-1.9l5-.9zm-27.5 8.4c-6 0-10.9-4.9-10.9-10.9s4.9-10.9 10.9-10.9 10.9 4.9 10.9 10.9-4.9 10.9-10.9 10.9z"/></svg>