<svg xmlns="http://www.w3.org/2000/svg" xmlns:xlink="http://www.w3.org/1999/xlink" preserveAspectRatio="xMidYMid" width="128" height="128" viewBox="0 0 16 16">
  <defs>
    <style>
      .cls-1 {
        fill: #fff;
        fill-rule: evenodd;
      }
    </style>
  </defs>
  <path d="M15.127,13.359 L13.383,13.359 L13.383,15.123 C13.383,15.610 12.993,16.004 12.511,16.004 C12.029,16.004 11.639,15.610 11.639,15.123 L11.639,13.359 L9.894,13.359 C9.413,13.359 9.022,12.965 9.022,12.478 C9.022,11.991 9.413,11.596 9.894,11.596 L11.639,11.596 L11.639,9.833 C11.639,9.346 12.029,8.952 12.511,8.952 C12.993,8.952 13.383,9.346 13.383,9.833 L13.383,11.596 L15.127,11.596 C15.609,11.596 16.000,11.991 16.000,12.478 C16.000,12.965 15.609,13.359 15.127,13.359 ZM7.906,9.872 L5.399,9.872 C3.773,9.872 2.420,10.769 2.034,12.564 L7.143,12.564 C7.143,13.162 7.229,13.462 7.390,14.060 L1.035,14.060 C0.558,14.060 -0.001,13.709 -0.001,13.221 L-0.001,12.564 C0.353,10.470 1.984,8.675 4.018,8.192 C3.664,7.649 3.255,6.879 3.255,6.169 L3.255,3.527 C3.255,1.579 4.879,0.000 6.806,0.000 C8.733,0.000 10.358,1.579 10.358,3.527 L10.358,6.169 C10.358,6.646 10.398,7.182 10.227,7.594 C9.196,8.045 8.474,8.675 7.906,9.872 ZM8.582,3.527 C8.582,2.555 7.915,1.763 6.954,1.763 C5.993,1.763 5.326,2.555 5.326,3.527 L5.326,6.169 C5.326,7.145 5.993,7.932 6.954,7.932 C7.915,7.932 8.582,7.145 8.582,6.169 L8.582,3.527 Z" class="cls-1"/>
</svg>
