<svg xmlns="http://www.w3.org/2000/svg" viewBox="0 0 28 28" enable-background="new 0 0 28 28"><path fill="#F77268" d="M16 21.5v-3c0-.1 0-.3-.1-.4-.1-.1-.3-.1-.4-.1h-3c-.1 0-.3 0-.4.1-.1.1-.1.3-.1.4v3c0 .1 0 .3.1.4.1.1.2.1.4.1h3c.1 0 .3 0 .4-.1.1-.1.1-.3.1-.4zm0-5.9l.3-7.2c0-.1-.1-.2-.2-.3l-.4-.1h-3.4c-.1 0-.2.1-.4.2-.1.1-.2.2-.2.3l.3 7.1c0 .1.1.2.2.3s.2.1.4.1h2.9c.1 0 .3 0 .4-.1l.1-.3zm-.2-14.6l12 22c.4.7.4 1.3 0 2-.2.3-.4.5-.7.7-.3.2-.6.3-1 .3h-24.1c-.4 0-.7-.1-1-.3s-.5-.4-.7-.7c-.4-.7-.4-1.3 0-2l12-22c.2-.3.4-.6.7-.8s.6-.2 1-.2.7.1 1 .3.6.4.8.7z"/></svg>